<?xml version="1.0" encoding="utf-8"?>
<!-- Generator: Adobe Illustrator 22.0.1, SVG Export Plug-In . SVG Version: 6.00 Build 0)  -->
<svg version="1.1" id="Layer_1" xmlns="http://www.w3.org/2000/svg" xmlns:xlink="http://www.w3.org/1999/xlink" x="0px" y="0px"
	 viewBox="0 0 600 600" enable-background="new 0 0 600 600" xml:space="preserve">
<g>
	<g>
		<circle fill="#E6E3E4" cx="170.8" cy="170.3" r="2.8"/>
		<circle fill="#E6E3E4" cx="181.2" cy="170.3" r="2.8"/>
		<circle fill="#E6E3E4" cx="191.6" cy="170.3" r="2.8"/>
		<circle fill="#E6E3E4" cx="202.1" cy="170.3" r="2.8"/>
		<circle fill="#E6E3E4" cx="212.5" cy="170.3" r="2.8"/>
		<circle fill="#E6E3E4" cx="222.9" cy="170.3" r="2.8"/>
		<circle fill="#E6E3E4" cx="233.4" cy="170.3" r="2.8"/>
		<circle fill="#E6E3E4" cx="243.8" cy="170.3" r="2.8"/>
		<circle fill="#E6E3E4" cx="254.2" cy="170.3" r="2.8"/>
		<circle fill="#E6E3E4" cx="264.7" cy="170.3" r="2.8"/>
		<circle fill="#E6E3E4" cx="275.1" cy="170.3" r="2.8"/>
		<circle fill="#E6E3E4" cx="285.6" cy="170.3" r="2.8"/>
		<circle fill="#E6E3E4" cx="296" cy="170.3" r="2.8"/>
	</g>
	<g>
		<circle fill="#E6E3E4" cx="170.8" cy="180.7" r="2.8"/>
		<circle fill="#E6E3E4" cx="181.2" cy="180.7" r="2.8"/>
		<circle fill="#E6E3E4" cx="191.6" cy="180.7" r="2.8"/>
		<circle fill="#E6E3E4" cx="202.1" cy="180.7" r="2.8"/>
		<circle fill="#E6E3E4" cx="212.5" cy="180.7" r="2.8"/>
		<circle fill="#E6E3E4" cx="222.9" cy="180.7" r="2.8"/>
		<circle fill="#E6E3E4" cx="233.4" cy="180.7" r="2.8"/>
		<circle fill="#E6E3E4" cx="243.8" cy="180.7" r="2.8"/>
		<circle fill="#E6E3E4" cx="254.2" cy="180.7" r="2.8"/>
		<circle fill="#E6E3E4" cx="264.7" cy="180.7" r="2.8"/>
		<circle fill="#E6E3E4" cx="275.1" cy="180.7" r="2.8"/>
		<circle fill="#E6E3E4" cx="285.6" cy="180.7" r="2.8"/>
		<circle fill="#E6E3E4" cx="296" cy="180.7" r="2.8"/>
	</g>
	<g>
		<circle fill="#E6E3E4" cx="170.8" cy="191.2" r="2.8"/>
		<circle fill="#E6E3E4" cx="181.2" cy="191.2" r="2.8"/>
		<circle fill="#E6E3E4" cx="191.6" cy="191.2" r="2.8"/>
		<circle fill="#E6E3E4" cx="202.1" cy="191.2" r="2.8"/>
		<circle fill="#E6E3E4" cx="212.5" cy="191.2" r="2.8"/>
		<circle fill="#E6E3E4" cx="222.9" cy="191.2" r="2.8"/>
		<circle fill="#E6E3E4" cx="233.4" cy="191.2" r="2.8"/>
		<circle fill="#E6E3E4" cx="243.8" cy="191.2" r="2.8"/>
		<circle fill="#E6E3E4" cx="254.2" cy="191.2" r="2.8"/>
		<circle fill="#E6E3E4" cx="264.7" cy="191.2" r="2.8"/>
		<circle fill="#E6E3E4" cx="275.1" cy="191.2" r="2.8"/>
		<circle fill="#E6E3E4" cx="285.6" cy="191.2" r="2.8"/>
		<circle fill="#E6E3E4" cx="296" cy="191.2" r="2.8"/>
	</g>
	<g>
		<circle fill="#E6E3E4" cx="170.8" cy="201.6" r="2.8"/>
		<circle fill="#E6E3E4" cx="181.2" cy="201.6" r="2.8"/>
		<circle fill="#E6E3E4" cx="191.6" cy="201.6" r="2.8"/>
		<circle fill="#E6E3E4" cx="202.1" cy="201.6" r="2.8"/>
		<circle fill="#E6E3E4" cx="212.5" cy="201.6" r="2.8"/>
		<circle fill="#E6E3E4" cx="222.9" cy="201.6" r="2.8"/>
		<circle fill="#E6E3E4" cx="233.4" cy="201.6" r="2.8"/>
		<circle fill="#E6E3E4" cx="243.8" cy="201.6" r="2.8"/>
		<circle fill="#E6E3E4" cx="254.2" cy="201.6" r="2.8"/>
		<circle fill="#E6E3E4" cx="264.7" cy="201.6" r="2.8"/>
		<circle fill="#E6E3E4" cx="275.1" cy="201.6" r="2.8"/>
		<circle fill="#E6E3E4" cx="285.6" cy="201.6" r="2.8"/>
		<circle fill="#E6E3E4" cx="296" cy="201.6" r="2.8"/>
	</g>
	<g>
		<circle fill="#E6E3E4" cx="170.8" cy="212" r="2.8"/>
		<circle fill="#E6E3E4" cx="181.2" cy="212" r="2.8"/>
		<circle fill="#E6E3E4" cx="191.6" cy="212" r="2.8"/>
		<circle fill="#E6E3E4" cx="202.1" cy="212" r="2.8"/>
		<circle fill="#E6E3E4" cx="212.5" cy="212" r="2.8"/>
		<circle fill="#E6E3E4" cx="222.9" cy="212" r="2.8"/>
		<circle fill="#E6E3E4" cx="233.4" cy="212" r="2.8"/>
		<circle fill="#E6E3E4" cx="243.8" cy="212" r="2.8"/>
		<circle fill="#E6E3E4" cx="254.2" cy="212" r="2.8"/>
		<circle fill="#E6E3E4" cx="264.7" cy="212" r="2.8"/>
		<circle fill="#E6E3E4" cx="275.1" cy="212" r="2.8"/>
		<circle fill="#E6E3E4" cx="285.6" cy="212" r="2.8"/>
		<circle fill="#E6E3E4" cx="296" cy="212" r="2.8"/>
	</g>
	<g>
		<circle fill="#E6E3E4" cx="170.8" cy="222.5" r="2.8"/>
		<circle fill="#E6E3E4" cx="181.2" cy="222.5" r="2.8"/>
		<circle fill="#E6E3E4" cx="191.6" cy="222.5" r="2.8"/>
		<circle fill="#E6E3E4" cx="202.1" cy="222.5" r="2.8"/>
		<circle fill="#E6E3E4" cx="212.5" cy="222.5" r="2.8"/>
		<circle fill="#E6E3E4" cx="222.9" cy="222.5" r="2.8"/>
		<circle fill="#E6E3E4" cx="233.4" cy="222.5" r="2.8"/>
		<circle fill="#E6E3E4" cx="243.8" cy="222.5" r="2.8"/>
		<circle fill="#E6E3E4" cx="254.2" cy="222.5" r="2.8"/>
		<circle fill="#E6E3E4" cx="264.7" cy="222.5" r="2.8"/>
		<circle fill="#E6E3E4" cx="275.1" cy="222.5" r="2.8"/>
		<circle fill="#E6E3E4" cx="285.6" cy="222.5" r="2.8"/>
		<circle fill="#E6E3E4" cx="296" cy="222.5" r="2.8"/>
	</g>
	<g>
		<circle fill="#E6E3E4" cx="170.8" cy="232.9" r="2.8"/>
		<circle fill="#E6E3E4" cx="181.2" cy="232.9" r="2.8"/>
		<circle fill="#E6E3E4" cx="191.6" cy="232.9" r="2.8"/>
		<circle fill="#E6E3E4" cx="202.1" cy="232.9" r="2.8"/>
		<circle fill="#E6E3E4" cx="212.5" cy="232.9" r="2.8"/>
		<circle fill="#E6E3E4" cx="222.9" cy="232.9" r="2.8"/>
		<circle fill="#E6E3E4" cx="233.4" cy="232.9" r="2.8"/>
		<circle fill="#E6E3E4" cx="243.8" cy="232.9" r="2.8"/>
		<circle fill="#E6E3E4" cx="254.2" cy="232.9" r="2.8"/>
		<circle fill="#E6E3E4" cx="264.7" cy="232.9" r="2.8"/>
		<circle fill="#E6E3E4" cx="275.1" cy="232.9" r="2.8"/>
		<circle fill="#E6E3E4" cx="285.6" cy="232.9" r="2.8"/>
		<circle fill="#E6E3E4" cx="296" cy="232.9" r="2.8"/>
	</g>
	<g>
		<circle fill="#E6E3E4" cx="170.8" cy="243.3" r="2.8"/>
		<circle fill="#E6E3E4" cx="181.2" cy="243.3" r="2.8"/>
		<circle fill="#E6E3E4" cx="191.6" cy="243.3" r="2.8"/>
		<circle fill="#E6E3E4" cx="202.1" cy="243.3" r="2.8"/>
		<circle fill="#E6E3E4" cx="212.5" cy="243.3" r="2.8"/>
		<circle fill="#E6E3E4" cx="222.9" cy="243.3" r="2.8"/>
		<circle fill="#E6E3E4" cx="233.4" cy="243.3" r="2.8"/>
		<circle fill="#E6E3E4" cx="243.8" cy="243.3" r="2.8"/>
		<circle fill="#E6E3E4" cx="254.2" cy="243.3" r="2.8"/>
		<circle fill="#E6E3E4" cx="264.7" cy="243.3" r="2.8"/>
		<circle fill="#E6E3E4" cx="275.1" cy="243.3" r="2.8"/>
		<circle fill="#E6E3E4" cx="285.6" cy="243.3" r="2.8"/>
		<circle fill="#E6E3E4" cx="296" cy="243.3" r="2.8"/>
	</g>
	<g>
		<circle fill="#E6E3E4" cx="170.8" cy="253.8" r="2.8"/>
		<circle fill="#E6E3E4" cx="181.2" cy="253.8" r="2.8"/>
		<circle fill="#E6E3E4" cx="191.6" cy="253.8" r="2.8"/>
		<circle fill="#E6E3E4" cx="202.1" cy="253.8" r="2.8"/>
		<circle fill="#E6E3E4" cx="212.5" cy="253.8" r="2.8"/>
		<circle fill="#E6E3E4" cx="222.9" cy="253.8" r="2.8"/>
		<circle fill="#E6E3E4" cx="233.4" cy="253.8" r="2.8"/>
		<circle fill="#E6E3E4" cx="243.8" cy="253.8" r="2.8"/>
		<circle fill="#E6E3E4" cx="254.2" cy="253.8" r="2.8"/>
		<circle fill="#E6E3E4" cx="264.7" cy="253.8" r="2.8"/>
		<circle fill="#E6E3E4" cx="275.1" cy="253.8" r="2.8"/>
		<circle fill="#E6E3E4" cx="285.6" cy="253.8" r="2.8"/>
		<circle fill="#E6E3E4" cx="296" cy="253.8" r="2.8"/>
	</g>
	<g>
		<circle fill="#E6E3E4" cx="170.8" cy="264.2" r="2.8"/>
		<circle fill="#E6E3E4" cx="181.2" cy="264.2" r="2.8"/>
		<circle fill="#E6E3E4" cx="191.6" cy="264.2" r="2.8"/>
		<circle fill="#E6E3E4" cx="202.1" cy="264.2" r="2.8"/>
		<circle fill="#E6E3E4" cx="212.5" cy="264.2" r="2.8"/>
		<circle fill="#E6E3E4" cx="222.9" cy="264.2" r="2.8"/>
		<circle fill="#E6E3E4" cx="233.4" cy="264.2" r="2.8"/>
		<circle fill="#E6E3E4" cx="243.8" cy="264.2" r="2.8"/>
		<circle fill="#E6E3E4" cx="254.2" cy="264.2" r="2.8"/>
		<circle fill="#E6E3E4" cx="264.7" cy="264.2" r="2.8"/>
		<circle fill="#E6E3E4" cx="275.1" cy="264.2" r="2.8"/>
		<circle fill="#E6E3E4" cx="285.6" cy="264.2" r="2.8"/>
		<circle fill="#E6E3E4" cx="296" cy="264.2" r="2.8"/>
	</g>
	<g>
		<circle fill="#E6E3E4" cx="170.8" cy="274.6" r="2.8"/>
		<circle fill="#E6E3E4" cx="181.2" cy="274.6" r="2.8"/>
		<circle fill="#E6E3E4" cx="191.6" cy="274.6" r="2.8"/>
		<circle fill="#E6E3E4" cx="202.1" cy="274.6" r="2.8"/>
		<circle fill="#E6E3E4" cx="212.5" cy="274.6" r="2.8"/>
		<circle fill="#E6E3E4" cx="222.9" cy="274.6" r="2.8"/>
		<circle fill="#E6E3E4" cx="233.4" cy="274.6" r="2.8"/>
		<circle fill="#E6E3E4" cx="243.8" cy="274.6" r="2.8"/>
		<circle fill="#E6E3E4" cx="254.2" cy="274.6" r="2.8"/>
		<circle fill="#E6E3E4" cx="264.7" cy="274.6" r="2.8"/>
		<circle fill="#E6E3E4" cx="275.1" cy="274.6" r="2.8"/>
		<circle fill="#E6E3E4" cx="285.6" cy="274.6" r="2.8"/>
		<circle fill="#E6E3E4" cx="296" cy="274.6" r="2.8"/>
	</g>
	<g>
		<circle fill="#E6E3E4" cx="170.8" cy="285.1" r="2.8"/>
		<circle fill="#E6E3E4" cx="181.2" cy="285.1" r="2.8"/>
		<circle fill="#E6E3E4" cx="191.6" cy="285.1" r="2.8"/>
		<circle fill="#E6E3E4" cx="202.1" cy="285.1" r="2.8"/>
		<circle fill="#E6E3E4" cx="212.5" cy="285.1" r="2.8"/>
		<circle fill="#E6E3E4" cx="222.9" cy="285.1" r="2.8"/>
		<circle fill="#E6E3E4" cx="233.4" cy="285.1" r="2.8"/>
		<circle fill="#E6E3E4" cx="243.8" cy="285.1" r="2.8"/>
		<circle fill="#E6E3E4" cx="254.2" cy="285.1" r="2.8"/>
		<circle fill="#E6E3E4" cx="264.7" cy="285.1" r="2.8"/>
		<circle fill="#E6E3E4" cx="275.1" cy="285.1" r="2.8"/>
		<circle fill="#E6E3E4" cx="285.6" cy="285.1" r="2.8"/>
		<circle fill="#E6E3E4" cx="296" cy="285.1" r="2.8"/>
	</g>
	<g>
		<circle fill="#E6E3E4" cx="170.8" cy="295.5" r="2.8"/>
		<circle fill="#E6E3E4" cx="181.2" cy="295.5" r="2.8"/>
		<circle fill="#E6E3E4" cx="191.6" cy="295.5" r="2.8"/>
		<circle fill="#E6E3E4" cx="202.1" cy="295.5" r="2.8"/>
		<circle fill="#E6E3E4" cx="212.5" cy="295.5" r="2.8"/>
		<circle fill="#E6E3E4" cx="222.9" cy="295.5" r="2.8"/>
		<circle fill="#E6E3E4" cx="233.4" cy="295.5" r="2.8"/>
		<circle fill="#E6E3E4" cx="243.8" cy="295.5" r="2.8"/>
		<circle fill="#E6E3E4" cx="254.2" cy="295.5" r="2.8"/>
		<circle fill="#E6E3E4" cx="264.7" cy="295.5" r="2.8"/>
		<circle fill="#E6E3E4" cx="275.1" cy="295.5" r="2.8"/>
		<circle fill="#E6E3E4" cx="285.6" cy="295.5" r="2.8"/>
		<circle fill="#E6E3E4" cx="296" cy="295.5" r="2.8"/>
	</g>
	<g>
		<circle fill="#E6E3E4" cx="306" cy="170.3" r="2.8"/>
		<circle fill="#E6E3E4" cx="316.4" cy="170.3" r="2.8"/>
		<circle fill="#E6E3E4" cx="326.9" cy="170.3" r="2.8"/>
		<circle fill="#E6E3E4" cx="337.3" cy="170.3" r="2.8"/>
		<circle fill="#E6E3E4" cx="347.7" cy="170.3" r="2.8"/>
		<circle fill="#E6E3E4" cx="358.2" cy="170.3" r="2.8"/>
		<circle fill="#E6E3E4" cx="368.6" cy="170.3" r="2.8"/>
		<circle fill="#E6E3E4" cx="379" cy="170.3" r="2.8"/>
		<circle fill="#E6E3E4" cx="389.5" cy="170.3" r="2.8"/>
		<circle fill="#E6E3E4" cx="399.9" cy="170.3" r="2.8"/>
		<circle fill="#E6E3E4" cx="410.3" cy="170.3" r="2.8"/>
		<circle fill="#E6E3E4" cx="420.8" cy="170.3" r="2.8"/>
		<circle fill="#E6E3E4" cx="431.2" cy="170.3" r="2.8"/>
	</g>
	<g>
		<circle fill="#E6E3E4" cx="306" cy="180.7" r="2.8"/>
		<circle fill="#E6E3E4" cx="316.4" cy="180.7" r="2.8"/>
		<circle fill="#E6E3E4" cx="326.9" cy="180.7" r="2.8"/>
		<circle fill="#E6E3E4" cx="337.3" cy="180.7" r="2.8"/>
		<circle fill="#E6E3E4" cx="347.7" cy="180.7" r="2.8"/>
		<circle fill="#E6E3E4" cx="358.2" cy="180.7" r="2.8"/>
		<circle fill="#E6E3E4" cx="368.6" cy="180.7" r="2.8"/>
		<circle fill="#E6E3E4" cx="379" cy="180.7" r="2.8"/>
		<circle fill="#E6E3E4" cx="389.5" cy="180.7" r="2.8"/>
		<circle fill="#E6E3E4" cx="399.9" cy="180.7" r="2.8"/>
		<circle fill="#E6E3E4" cx="410.3" cy="180.7" r="2.8"/>
		<circle fill="#E6E3E4" cx="420.8" cy="180.7" r="2.8"/>
		<circle fill="#E6E3E4" cx="431.2" cy="180.7" r="2.8"/>
	</g>
	<g>
		<circle fill="#E6E3E4" cx="306" cy="191.2" r="2.8"/>
		<circle fill="#E6E3E4" cx="316.4" cy="191.2" r="2.8"/>
		<circle fill="#E6E3E4" cx="326.9" cy="191.2" r="2.8"/>
		<circle fill="#E6E3E4" cx="337.3" cy="191.2" r="2.8"/>
		<circle fill="#E6E3E4" cx="347.7" cy="191.2" r="2.8"/>
		<circle fill="#E6E3E4" cx="358.2" cy="191.2" r="2.8"/>
		<circle fill="#E6E3E4" cx="368.6" cy="191.2" r="2.8"/>
		<circle fill="#E6E3E4" cx="379" cy="191.2" r="2.8"/>
		<circle fill="#E6E3E4" cx="389.5" cy="191.2" r="2.8"/>
		<circle fill="#E6E3E4" cx="399.9" cy="191.2" r="2.8"/>
		<circle fill="#E6E3E4" cx="410.3" cy="191.2" r="2.8"/>
		<circle fill="#E6E3E4" cx="420.8" cy="191.2" r="2.8"/>
		<circle fill="#E6E3E4" cx="431.2" cy="191.2" r="2.8"/>
	</g>
	<g>
		<circle fill="#E6E3E4" cx="306" cy="201.6" r="2.8"/>
		<circle fill="#E6E3E4" cx="316.4" cy="201.6" r="2.8"/>
		<circle fill="#E6E3E4" cx="326.9" cy="201.6" r="2.8"/>
		<circle fill="#E6E3E4" cx="337.3" cy="201.6" r="2.8"/>
		<circle fill="#E6E3E4" cx="347.7" cy="201.6" r="2.8"/>
		<circle fill="#E6E3E4" cx="358.2" cy="201.6" r="2.8"/>
		<circle fill="#E6E3E4" cx="368.6" cy="201.6" r="2.8"/>
		<circle fill="#E6E3E4" cx="379" cy="201.6" r="2.8"/>
		<circle fill="#E6E3E4" cx="389.5" cy="201.6" r="2.8"/>
		<circle fill="#E6E3E4" cx="399.9" cy="201.6" r="2.8"/>
		<circle fill="#E6E3E4" cx="410.3" cy="201.6" r="2.8"/>
		<circle fill="#E6E3E4" cx="420.8" cy="201.6" r="2.8"/>
		<circle fill="#E6E3E4" cx="431.2" cy="201.6" r="2.8"/>
	</g>
	<g>
		<circle fill="#E6E3E4" cx="306" cy="212" r="2.8"/>
		<circle fill="#E6E3E4" cx="316.4" cy="212" r="2.8"/>
		<circle fill="#E6E3E4" cx="326.9" cy="212" r="2.8"/>
		<circle fill="#E6E3E4" cx="337.3" cy="212" r="2.8"/>
		<circle fill="#E6E3E4" cx="347.7" cy="212" r="2.8"/>
		<circle fill="#E6E3E4" cx="358.2" cy="212" r="2.8"/>
		<circle fill="#E6E3E4" cx="368.6" cy="212" r="2.8"/>
		<circle fill="#E6E3E4" cx="379" cy="212" r="2.8"/>
		<circle fill="#E6E3E4" cx="389.5" cy="212" r="2.8"/>
		<circle fill="#E6E3E4" cx="399.9" cy="212" r="2.8"/>
		<circle fill="#E6E3E4" cx="410.3" cy="212" r="2.8"/>
		<circle fill="#E6E3E4" cx="420.8" cy="212" r="2.8"/>
		<circle fill="#E6E3E4" cx="431.2" cy="212" r="2.8"/>
	</g>
	<g>
		<circle fill="#E6E3E4" cx="306" cy="222.5" r="2.8"/>
		<circle fill="#E6E3E4" cx="316.4" cy="222.5" r="2.8"/>
		<circle fill="#E6E3E4" cx="326.9" cy="222.5" r="2.8"/>
		<circle fill="#E6E3E4" cx="337.3" cy="222.5" r="2.8"/>
		<circle fill="#E6E3E4" cx="347.7" cy="222.5" r="2.8"/>
		<circle fill="#E6E3E4" cx="358.2" cy="222.5" r="2.8"/>
		<circle fill="#E6E3E4" cx="368.6" cy="222.5" r="2.8"/>
		<circle fill="#E6E3E4" cx="379" cy="222.5" r="2.8"/>
		<circle fill="#E6E3E4" cx="389.5" cy="222.5" r="2.8"/>
		<circle fill="#E6E3E4" cx="399.9" cy="222.5" r="2.8"/>
		<circle fill="#E6E3E4" cx="410.3" cy="222.5" r="2.8"/>
		<circle fill="#E6E3E4" cx="420.8" cy="222.5" r="2.8"/>
		<circle fill="#E6E3E4" cx="431.2" cy="222.5" r="2.8"/>
	</g>
	<g>
		<circle fill="#E6E3E4" cx="306" cy="232.9" r="2.8"/>
		<circle fill="#E6E3E4" cx="316.4" cy="232.9" r="2.8"/>
		<circle fill="#E6E3E4" cx="326.9" cy="232.9" r="2.8"/>
		<circle fill="#E6E3E4" cx="337.3" cy="232.9" r="2.8"/>
		<circle fill="#E6E3E4" cx="347.7" cy="232.9" r="2.8"/>
		<circle fill="#E6E3E4" cx="358.2" cy="232.9" r="2.8"/>
		<circle fill="#E6E3E4" cx="368.6" cy="232.9" r="2.8"/>
		<circle fill="#E6E3E4" cx="379" cy="232.9" r="2.8"/>
		<circle fill="#E6E3E4" cx="389.5" cy="232.9" r="2.8"/>
		<circle fill="#E6E3E4" cx="399.9" cy="232.9" r="2.8"/>
		<circle fill="#E6E3E4" cx="410.3" cy="232.9" r="2.8"/>
		<circle fill="#E6E3E4" cx="420.8" cy="232.9" r="2.8"/>
		<circle fill="#E6E3E4" cx="431.2" cy="232.9" r="2.8"/>
	</g>
	<g>
		<circle fill="#E6E3E4" cx="306" cy="243.3" r="2.8"/>
		<circle fill="#E6E3E4" cx="316.4" cy="243.3" r="2.8"/>
		<circle fill="#E6E3E4" cx="326.9" cy="243.3" r="2.8"/>
		<circle fill="#E6E3E4" cx="337.3" cy="243.3" r="2.8"/>
		<circle fill="#E6E3E4" cx="347.7" cy="243.3" r="2.8"/>
		<circle fill="#E6E3E4" cx="358.2" cy="243.3" r="2.8"/>
		<circle fill="#E6E3E4" cx="368.6" cy="243.3" r="2.8"/>
		<circle fill="#E6E3E4" cx="379" cy="243.3" r="2.8"/>
		<circle fill="#E6E3E4" cx="389.5" cy="243.3" r="2.8"/>
		<circle fill="#E6E3E4" cx="399.9" cy="243.3" r="2.8"/>
		<circle fill="#E6E3E4" cx="410.3" cy="243.3" r="2.8"/>
		<circle fill="#E6E3E4" cx="420.8" cy="243.3" r="2.8"/>
		<circle fill="#E6E3E4" cx="431.2" cy="243.3" r="2.8"/>
	</g>
	<g>
		<circle fill="#E6E3E4" cx="306" cy="253.8" r="2.8"/>
		<circle fill="#E6E3E4" cx="316.4" cy="253.8" r="2.8"/>
		<circle fill="#E6E3E4" cx="326.9" cy="253.8" r="2.8"/>
		<circle fill="#E6E3E4" cx="337.3" cy="253.8" r="2.8"/>
		<circle fill="#E6E3E4" cx="347.7" cy="253.8" r="2.8"/>
		<circle fill="#E6E3E4" cx="358.2" cy="253.8" r="2.8"/>
		<circle fill="#E6E3E4" cx="368.6" cy="253.8" r="2.8"/>
		<circle fill="#E6E3E4" cx="379" cy="253.8" r="2.8"/>
		<circle fill="#E6E3E4" cx="389.5" cy="253.8" r="2.8"/>
		<circle fill="#E6E3E4" cx="399.9" cy="253.8" r="2.8"/>
		<circle fill="#E6E3E4" cx="410.3" cy="253.8" r="2.8"/>
		<circle fill="#E6E3E4" cx="420.8" cy="253.8" r="2.8"/>
		<circle fill="#E6E3E4" cx="431.2" cy="253.8" r="2.8"/>
	</g>
	<g>
		<circle fill="#E6E3E4" cx="306" cy="264.2" r="2.8"/>
		<circle fill="#E6E3E4" cx="316.4" cy="264.2" r="2.8"/>
		<circle fill="#E6E3E4" cx="326.9" cy="264.2" r="2.8"/>
		<circle fill="#E6E3E4" cx="337.3" cy="264.2" r="2.8"/>
		<circle fill="#E6E3E4" cx="347.7" cy="264.2" r="2.8"/>
		<circle fill="#E6E3E4" cx="358.2" cy="264.2" r="2.8"/>
		<circle fill="#E6E3E4" cx="368.6" cy="264.2" r="2.8"/>
		<circle fill="#E6E3E4" cx="379" cy="264.2" r="2.8"/>
		<circle fill="#E6E3E4" cx="389.5" cy="264.2" r="2.8"/>
		<circle fill="#E6E3E4" cx="399.9" cy="264.2" r="2.8"/>
		<circle fill="#E6E3E4" cx="410.3" cy="264.2" r="2.8"/>
		<circle fill="#E6E3E4" cx="420.8" cy="264.2" r="2.8"/>
		<circle fill="#E6E3E4" cx="431.2" cy="264.2" r="2.8"/>
	</g>
	<g>
		<circle fill="#E6E3E4" cx="306" cy="274.6" r="2.8"/>
		<circle fill="#E6E3E4" cx="316.4" cy="274.6" r="2.8"/>
		<circle fill="#E6E3E4" cx="326.9" cy="274.6" r="2.8"/>
		<circle fill="#E6E3E4" cx="337.3" cy="274.6" r="2.8"/>
		<circle fill="#E6E3E4" cx="347.7" cy="274.6" r="2.8"/>
		<circle fill="#E6E3E4" cx="358.2" cy="274.6" r="2.8"/>
		<circle fill="#E6E3E4" cx="368.6" cy="274.6" r="2.8"/>
		<circle fill="#E6E3E4" cx="379" cy="274.6" r="2.8"/>
		<circle fill="#E6E3E4" cx="389.5" cy="274.6" r="2.8"/>
		<circle fill="#E6E3E4" cx="399.9" cy="274.6" r="2.8"/>
		<circle fill="#E6E3E4" cx="410.3" cy="274.6" r="2.8"/>
		<circle fill="#E6E3E4" cx="420.8" cy="274.6" r="2.8"/>
		<circle fill="#E6E3E4" cx="431.2" cy="274.6" r="2.8"/>
	</g>
	<g>
		<circle fill="#E6E3E4" cx="306" cy="285.1" r="2.8"/>
		<circle fill="#E6E3E4" cx="316.4" cy="285.1" r="2.8"/>
		<circle fill="#E6E3E4" cx="326.9" cy="285.1" r="2.8"/>
		<circle fill="#E6E3E4" cx="337.3" cy="285.1" r="2.8"/>
		<circle fill="#E6E3E4" cx="347.7" cy="285.1" r="2.8"/>
		<circle fill="#E6E3E4" cx="358.2" cy="285.1" r="2.8"/>
		<circle fill="#E6E3E4" cx="368.6" cy="285.1" r="2.8"/>
		<circle fill="#E6E3E4" cx="379" cy="285.1" r="2.8"/>
		<circle fill="#E6E3E4" cx="389.5" cy="285.1" r="2.8"/>
		<circle fill="#E6E3E4" cx="399.9" cy="285.1" r="2.8"/>
		<circle fill="#E6E3E4" cx="410.3" cy="285.1" r="2.8"/>
		<circle fill="#E6E3E4" cx="420.8" cy="285.1" r="2.8"/>
		<circle fill="#E6E3E4" cx="431.2" cy="285.1" r="2.8"/>
	</g>
	<g>
		<circle fill="#E6E3E4" cx="306" cy="295.5" r="2.8"/>
		<circle fill="#E6E3E4" cx="316.4" cy="295.5" r="2.8"/>
		<circle fill="#E6E3E4" cx="326.9" cy="295.5" r="2.8"/>
		<circle fill="#E6E3E4" cx="337.3" cy="295.5" r="2.8"/>
		<circle fill="#E6E3E4" cx="347.7" cy="295.5" r="2.8"/>
		<circle fill="#E6E3E4" cx="358.2" cy="295.5" r="2.8"/>
		<circle fill="#E6E3E4" cx="368.6" cy="295.5" r="2.8"/>
		<circle fill="#E6E3E4" cx="379" cy="295.5" r="2.8"/>
		<circle fill="#E6E3E4" cx="389.5" cy="295.5" r="2.8"/>
		<circle fill="#E6E3E4" cx="399.9" cy="295.5" r="2.8"/>
		<circle fill="#E6E3E4" cx="410.3" cy="295.5" r="2.8"/>
		<circle fill="#E6E3E4" cx="420.8" cy="295.5" r="2.8"/>
		<circle fill="#E6E3E4" cx="431.2" cy="295.5" r="2.8"/>
	</g>
	<g>
		<circle fill="#E6E3E4" cx="170.8" cy="305.5" r="2.8"/>
		<circle fill="#E6E3E4" cx="181.2" cy="305.5" r="2.8"/>
		<circle fill="#E6E3E4" cx="191.6" cy="305.5" r="2.8"/>
		<circle fill="#E6E3E4" cx="202.1" cy="305.5" r="2.8"/>
		<circle fill="#E6E3E4" cx="212.5" cy="305.5" r="2.8"/>
		<circle fill="#E6E3E4" cx="222.9" cy="305.5" r="2.8"/>
		<circle fill="#E6E3E4" cx="233.4" cy="305.5" r="2.8"/>
		<circle fill="#E6E3E4" cx="243.8" cy="305.5" r="2.8"/>
		<circle fill="#E6E3E4" cx="254.2" cy="305.5" r="2.8"/>
		<circle fill="#E6E3E4" cx="264.7" cy="305.5" r="2.8"/>
		<circle fill="#E6E3E4" cx="275.1" cy="305.5" r="2.8"/>
		<circle fill="#E6E3E4" cx="285.6" cy="305.5" r="2.8"/>
		<circle fill="#E6E3E4" cx="296" cy="305.5" r="2.8"/>
	</g>
	<g>
		<circle fill="#E6E3E4" cx="170.8" cy="316" r="2.8"/>
		<circle fill="#E6E3E4" cx="181.2" cy="316" r="2.8"/>
		<circle fill="#E6E3E4" cx="191.6" cy="316" r="2.8"/>
		<circle fill="#E6E3E4" cx="202.1" cy="316" r="2.8"/>
		<circle fill="#E6E3E4" cx="212.5" cy="316" r="2.8"/>
		<circle fill="#E6E3E4" cx="222.9" cy="316" r="2.8"/>
		<circle fill="#E6E3E4" cx="233.4" cy="316" r="2.8"/>
		<circle fill="#E6E3E4" cx="243.8" cy="316" r="2.8"/>
		<circle fill="#E6E3E4" cx="254.2" cy="316" r="2.8"/>
		<circle fill="#E6E3E4" cx="264.7" cy="316" r="2.8"/>
		<circle fill="#E6E3E4" cx="275.1" cy="316" r="2.8"/>
		<circle fill="#E6E3E4" cx="285.6" cy="316" r="2.8"/>
		<circle fill="#E6E3E4" cx="296" cy="316" r="2.8"/>
	</g>
	<g>
		<circle fill="#E6E3E4" cx="170.8" cy="326.4" r="2.8"/>
		<circle fill="#E6E3E4" cx="181.2" cy="326.4" r="2.8"/>
		<circle fill="#E6E3E4" cx="191.6" cy="326.4" r="2.8"/>
		<circle fill="#E6E3E4" cx="202.1" cy="326.4" r="2.8"/>
		<circle fill="#E6E3E4" cx="212.5" cy="326.4" r="2.8"/>
		<circle fill="#E6E3E4" cx="222.9" cy="326.4" r="2.8"/>
		<circle fill="#E6E3E4" cx="233.4" cy="326.4" r="2.8"/>
		<circle fill="#E6E3E4" cx="243.8" cy="326.4" r="2.8"/>
		<circle fill="#E6E3E4" cx="254.2" cy="326.4" r="2.8"/>
		<circle fill="#E6E3E4" cx="264.7" cy="326.4" r="2.8"/>
		<circle fill="#E6E3E4" cx="275.1" cy="326.4" r="2.8"/>
		<circle fill="#E6E3E4" cx="285.6" cy="326.4" r="2.8"/>
		<circle fill="#E6E3E4" cx="296" cy="326.4" r="2.8"/>
	</g>
	<g>
		<circle fill="#E6E3E4" cx="170.8" cy="336.8" r="2.8"/>
		<circle fill="#E6E3E4" cx="181.2" cy="336.8" r="2.8"/>
		<circle fill="#E6E3E4" cx="191.6" cy="336.8" r="2.8"/>
		<circle fill="#E6E3E4" cx="202.1" cy="336.8" r="2.8"/>
		<circle fill="#E6E3E4" cx="212.5" cy="336.8" r="2.8"/>
		<circle fill="#E6E3E4" cx="222.9" cy="336.8" r="2.8"/>
		<circle fill="#E6E3E4" cx="233.4" cy="336.8" r="2.8"/>
		<circle fill="#E6E3E4" cx="243.8" cy="336.8" r="2.8"/>
		<circle fill="#E6E3E4" cx="254.2" cy="336.8" r="2.8"/>
		<circle fill="#E6E3E4" cx="264.7" cy="336.8" r="2.8"/>
		<circle fill="#E6E3E4" cx="275.1" cy="336.8" r="2.8"/>
		<circle fill="#E6E3E4" cx="285.6" cy="336.8" r="2.8"/>
		<circle fill="#E6E3E4" cx="296" cy="336.8" r="2.8"/>
	</g>
	<g>
		<circle fill="#E6E3E4" cx="170.8" cy="347.3" r="2.8"/>
		<circle fill="#E6E3E4" cx="181.2" cy="347.3" r="2.8"/>
		<circle fill="#E6E3E4" cx="191.6" cy="347.3" r="2.8"/>
		<circle fill="#E6E3E4" cx="202.1" cy="347.3" r="2.8"/>
		<circle fill="#E6E3E4" cx="212.5" cy="347.3" r="2.8"/>
		<circle fill="#E6E3E4" cx="222.9" cy="347.3" r="2.8"/>
		<circle fill="#E6E3E4" cx="233.4" cy="347.3" r="2.8"/>
		<circle fill="#E6E3E4" cx="243.8" cy="347.3" r="2.8"/>
		<circle fill="#E6E3E4" cx="254.2" cy="347.3" r="2.8"/>
		<circle fill="#E6E3E4" cx="264.7" cy="347.3" r="2.8"/>
		<circle fill="#E6E3E4" cx="275.1" cy="347.3" r="2.8"/>
		<circle fill="#E6E3E4" cx="285.6" cy="347.3" r="2.8"/>
		<circle fill="#E6E3E4" cx="296" cy="347.3" r="2.8"/>
	</g>
	<g>
		<circle fill="#E6E3E4" cx="170.8" cy="357.7" r="2.8"/>
		<circle fill="#E6E3E4" cx="181.2" cy="357.7" r="2.8"/>
		<circle fill="#E6E3E4" cx="191.6" cy="357.7" r="2.8"/>
		<circle fill="#E6E3E4" cx="202.1" cy="357.7" r="2.8"/>
		<circle fill="#E6E3E4" cx="212.5" cy="357.7" r="2.8"/>
		<circle fill="#E6E3E4" cx="222.9" cy="357.7" r="2.8"/>
		<circle fill="#E6E3E4" cx="233.4" cy="357.7" r="2.8"/>
		<circle fill="#E6E3E4" cx="243.8" cy="357.7" r="2.8"/>
		<circle fill="#E6E3E4" cx="254.2" cy="357.7" r="2.8"/>
		<circle fill="#E6E3E4" cx="264.7" cy="357.7" r="2.8"/>
		<circle fill="#E6E3E4" cx="275.1" cy="357.7" r="2.8"/>
		<circle fill="#E6E3E4" cx="285.6" cy="357.7" r="2.8"/>
		<circle fill="#E6E3E4" cx="296" cy="357.7" r="2.8"/>
	</g>
	<g>
		<circle fill="#E6E3E4" cx="170.8" cy="368.1" r="2.8"/>
		<circle fill="#E6E3E4" cx="181.2" cy="368.1" r="2.8"/>
		<circle fill="#E6E3E4" cx="191.6" cy="368.1" r="2.8"/>
		<circle fill="#E6E3E4" cx="202.1" cy="368.1" r="2.8"/>
		<circle fill="#E6E3E4" cx="212.5" cy="368.1" r="2.8"/>
		<circle fill="#E6E3E4" cx="222.9" cy="368.1" r="2.8"/>
		<circle fill="#E6E3E4" cx="233.4" cy="368.1" r="2.8"/>
		<circle fill="#E6E3E4" cx="243.8" cy="368.1" r="2.8"/>
		<circle fill="#E6E3E4" cx="254.2" cy="368.1" r="2.8"/>
		<circle fill="#E6E3E4" cx="264.7" cy="368.1" r="2.8"/>
		<circle fill="#E6E3E4" cx="275.1" cy="368.1" r="2.8"/>
		<circle fill="#E6E3E4" cx="285.6" cy="368.1" r="2.8"/>
		<circle fill="#E6E3E4" cx="296" cy="368.1" r="2.8"/>
	</g>
	<g>
		<circle fill="#E6E3E4" cx="170.8" cy="378.6" r="2.8"/>
		<circle fill="#E6E3E4" cx="181.2" cy="378.6" r="2.8"/>
		<circle fill="#E6E3E4" cx="191.6" cy="378.6" r="2.8"/>
		<circle fill="#E6E3E4" cx="202.1" cy="378.6" r="2.8"/>
		<circle fill="#E6E3E4" cx="212.5" cy="378.6" r="2.8"/>
		<circle fill="#E6E3E4" cx="222.9" cy="378.6" r="2.8"/>
		<circle fill="#E6E3E4" cx="233.4" cy="378.6" r="2.8"/>
		<circle fill="#E6E3E4" cx="243.8" cy="378.6" r="2.8"/>
		<circle fill="#E6E3E4" cx="254.2" cy="378.6" r="2.8"/>
		<circle fill="#E6E3E4" cx="264.7" cy="378.6" r="2.8"/>
		<circle fill="#E6E3E4" cx="275.1" cy="378.6" r="2.8"/>
		<circle fill="#E6E3E4" cx="285.6" cy="378.6" r="2.8"/>
		<circle fill="#E6E3E4" cx="296" cy="378.6" r="2.8"/>
	</g>
	<g>
		<circle fill="#E6E3E4" cx="170.8" cy="389" r="2.8"/>
		<circle fill="#E6E3E4" cx="181.2" cy="389" r="2.8"/>
		<circle fill="#E6E3E4" cx="191.6" cy="389" r="2.8"/>
		<circle fill="#E6E3E4" cx="202.1" cy="389" r="2.8"/>
		<circle fill="#E6E3E4" cx="212.5" cy="389" r="2.8"/>
		<circle fill="#E6E3E4" cx="222.9" cy="389" r="2.8"/>
		<circle fill="#E6E3E4" cx="233.4" cy="389" r="2.8"/>
		<circle fill="#E6E3E4" cx="243.8" cy="389" r="2.8"/>
		<circle fill="#E6E3E4" cx="254.2" cy="389" r="2.8"/>
		<circle fill="#E6E3E4" cx="264.7" cy="389" r="2.8"/>
		<circle fill="#E6E3E4" cx="275.1" cy="389" r="2.8"/>
		<circle fill="#E6E3E4" cx="285.6" cy="389" r="2.8"/>
		<circle fill="#E6E3E4" cx="296" cy="389" r="2.8"/>
	</g>
	<g>
		<circle fill="#E6E3E4" cx="170.8" cy="399.4" r="2.8"/>
		<circle fill="#E6E3E4" cx="181.2" cy="399.4" r="2.8"/>
		<circle fill="#E6E3E4" cx="191.6" cy="399.4" r="2.8"/>
		<circle fill="#E6E3E4" cx="202.1" cy="399.4" r="2.8"/>
		<circle fill="#E6E3E4" cx="212.5" cy="399.4" r="2.8"/>
		<circle fill="#E6E3E4" cx="222.9" cy="399.4" r="2.8"/>
		<circle fill="#E6E3E4" cx="233.4" cy="399.4" r="2.8"/>
		<circle fill="#E6E3E4" cx="243.8" cy="399.4" r="2.8"/>
		<circle fill="#E6E3E4" cx="254.2" cy="399.4" r="2.8"/>
		<circle fill="#E6E3E4" cx="264.7" cy="399.4" r="2.8"/>
		<circle fill="#E6E3E4" cx="275.1" cy="399.4" r="2.8"/>
		<circle fill="#E6E3E4" cx="285.6" cy="399.4" r="2.8"/>
		<circle fill="#E6E3E4" cx="296" cy="399.4" r="2.8"/>
	</g>
	<g>
		<circle fill="#E6E3E4" cx="170.8" cy="409.9" r="2.8"/>
		<circle fill="#E6E3E4" cx="181.2" cy="409.9" r="2.8"/>
		<circle fill="#E6E3E4" cx="191.6" cy="409.9" r="2.8"/>
		<circle fill="#E6E3E4" cx="202.1" cy="409.9" r="2.8"/>
		<circle fill="#E6E3E4" cx="212.5" cy="409.9" r="2.8"/>
		<circle fill="#E6E3E4" cx="222.9" cy="409.9" r="2.8"/>
		<circle fill="#E6E3E4" cx="233.4" cy="409.9" r="2.8"/>
		<circle fill="#E6E3E4" cx="243.8" cy="409.9" r="2.8"/>
		<circle fill="#E6E3E4" cx="254.2" cy="409.9" r="2.8"/>
		<circle fill="#E6E3E4" cx="264.7" cy="409.9" r="2.8"/>
		<circle fill="#E6E3E4" cx="275.1" cy="409.9" r="2.8"/>
		<circle fill="#E6E3E4" cx="285.6" cy="409.9" r="2.8"/>
		<circle fill="#E6E3E4" cx="296" cy="409.9" r="2.8"/>
	</g>
	<g>
		<circle fill="#E6E3E4" cx="170.8" cy="420.3" r="2.8"/>
		<circle fill="#E6E3E4" cx="181.2" cy="420.3" r="2.8"/>
		<circle fill="#E6E3E4" cx="191.6" cy="420.3" r="2.8"/>
		<circle fill="#E6E3E4" cx="202.1" cy="420.3" r="2.8"/>
		<circle fill="#E6E3E4" cx="212.5" cy="420.3" r="2.8"/>
		<circle fill="#E6E3E4" cx="222.9" cy="420.3" r="2.8"/>
		<circle fill="#E6E3E4" cx="233.4" cy="420.3" r="2.8"/>
		<circle fill="#E6E3E4" cx="243.8" cy="420.3" r="2.8"/>
		<circle fill="#E6E3E4" cx="254.2" cy="420.3" r="2.8"/>
		<circle fill="#E6E3E4" cx="264.7" cy="420.3" r="2.8"/>
		<circle fill="#E6E3E4" cx="275.1" cy="420.3" r="2.8"/>
		<circle fill="#E6E3E4" cx="285.6" cy="420.3" r="2.8"/>
		<circle fill="#E6E3E4" cx="296" cy="420.3" r="2.8"/>
	</g>
	<g>
		<circle fill="#E6E3E4" cx="170.8" cy="430.7" r="2.8"/>
		<circle fill="#E6E3E4" cx="181.2" cy="430.7" r="2.8"/>
		<circle fill="#E6E3E4" cx="191.6" cy="430.7" r="2.8"/>
		<circle fill="#E6E3E4" cx="202.1" cy="430.7" r="2.8"/>
		<circle fill="#E6E3E4" cx="212.5" cy="430.7" r="2.8"/>
		<circle fill="#E6E3E4" cx="222.9" cy="430.7" r="2.8"/>
		<circle fill="#E6E3E4" cx="233.4" cy="430.7" r="2.8"/>
		<circle fill="#E6E3E4" cx="243.8" cy="430.7" r="2.8"/>
		<circle fill="#E6E3E4" cx="254.2" cy="430.7" r="2.8"/>
		<circle fill="#E6E3E4" cx="264.7" cy="430.7" r="2.8"/>
		<circle fill="#E6E3E4" cx="275.1" cy="430.7" r="2.8"/>
		<circle fill="#E6E3E4" cx="285.6" cy="430.7" r="2.8"/>
		<circle fill="#E6E3E4" cx="296" cy="430.7" r="2.8"/>
	</g>
	<g>
		<circle fill="#E6E3E4" cx="306" cy="305.5" r="2.8"/>
		<circle fill="#E6E3E4" cx="316.4" cy="305.5" r="2.8"/>
		<circle fill="#E6E3E4" cx="326.9" cy="305.5" r="2.8"/>
		<circle fill="#E6E3E4" cx="337.3" cy="305.5" r="2.8"/>
		<circle fill="#E6E3E4" cx="347.7" cy="305.5" r="2.8"/>
		<circle fill="#E6E3E4" cx="358.2" cy="305.5" r="2.8"/>
		<circle fill="#E6E3E4" cx="368.6" cy="305.5" r="2.8"/>
		<circle fill="#E6E3E4" cx="379" cy="305.5" r="2.8"/>
		<circle fill="#E6E3E4" cx="389.5" cy="305.5" r="2.8"/>
		<circle fill="#E6E3E4" cx="399.9" cy="305.5" r="2.8"/>
		<circle fill="#E6E3E4" cx="410.3" cy="305.5" r="2.8"/>
		<circle fill="#E6E3E4" cx="420.8" cy="305.5" r="2.8"/>
		<circle fill="#E6E3E4" cx="431.2" cy="305.5" r="2.8"/>
	</g>
	<g>
		<circle fill="#E6E3E4" cx="306" cy="316" r="2.8"/>
		<circle fill="#E6E3E4" cx="316.4" cy="316" r="2.8"/>
		<circle fill="#E6E3E4" cx="326.9" cy="316" r="2.8"/>
		<circle fill="#E6E3E4" cx="337.3" cy="316" r="2.8"/>
		<circle fill="#E6E3E4" cx="347.7" cy="316" r="2.8"/>
		<circle fill="#E6E3E4" cx="358.2" cy="316" r="2.8"/>
		<circle fill="#E6E3E4" cx="368.6" cy="316" r="2.8"/>
		<circle fill="#E6E3E4" cx="379" cy="316" r="2.8"/>
		<circle fill="#E6E3E4" cx="389.5" cy="316" r="2.8"/>
		<circle fill="#E6E3E4" cx="399.9" cy="316" r="2.8"/>
		<circle fill="#E6E3E4" cx="410.3" cy="316" r="2.8"/>
		<circle fill="#E6E3E4" cx="420.8" cy="316" r="2.8"/>
		<circle fill="#E6E3E4" cx="431.2" cy="316" r="2.8"/>
	</g>
	<g>
		<circle fill="#E6E3E4" cx="306" cy="326.4" r="2.8"/>
		<circle fill="#E6E3E4" cx="316.4" cy="326.4" r="2.8"/>
		<circle fill="#E6E3E4" cx="326.9" cy="326.4" r="2.8"/>
		<circle fill="#E6E3E4" cx="337.3" cy="326.4" r="2.8"/>
		<circle fill="#E6E3E4" cx="347.7" cy="326.4" r="2.8"/>
		<circle fill="#E6E3E4" cx="358.2" cy="326.4" r="2.8"/>
		<circle fill="#E6E3E4" cx="368.6" cy="326.4" r="2.8"/>
		<circle fill="#E6E3E4" cx="379" cy="326.4" r="2.8"/>
		<circle fill="#E6E3E4" cx="389.5" cy="326.4" r="2.8"/>
		<circle fill="#E6E3E4" cx="399.9" cy="326.4" r="2.8"/>
		<circle fill="#E6E3E4" cx="410.3" cy="326.4" r="2.8"/>
		<circle fill="#E6E3E4" cx="420.8" cy="326.4" r="2.8"/>
		<circle fill="#E6E3E4" cx="431.2" cy="326.4" r="2.8"/>
	</g>
	<g>
		<circle fill="#E6E3E4" cx="306" cy="336.8" r="2.8"/>
		<circle fill="#E6E3E4" cx="316.4" cy="336.8" r="2.8"/>
		<circle fill="#E6E3E4" cx="326.9" cy="336.8" r="2.8"/>
		<circle fill="#E6E3E4" cx="337.3" cy="336.8" r="2.8"/>
		<circle fill="#E6E3E4" cx="347.7" cy="336.8" r="2.8"/>
		<circle fill="#E6E3E4" cx="358.2" cy="336.8" r="2.8"/>
		<circle fill="#E6E3E4" cx="368.6" cy="336.8" r="2.8"/>
		<circle fill="#E6E3E4" cx="379" cy="336.8" r="2.8"/>
		<circle fill="#E6E3E4" cx="389.5" cy="336.8" r="2.8"/>
		<circle fill="#E6E3E4" cx="399.9" cy="336.8" r="2.8"/>
		<circle fill="#E6E3E4" cx="410.3" cy="336.8" r="2.8"/>
		<circle fill="#E6E3E4" cx="420.8" cy="336.8" r="2.8"/>
		<circle fill="#E6E3E4" cx="431.2" cy="336.8" r="2.8"/>
	</g>
	<g>
		<circle fill="#E6E3E4" cx="306" cy="347.3" r="2.8"/>
		<circle fill="#E6E3E4" cx="316.4" cy="347.3" r="2.8"/>
		<circle fill="#E6E3E4" cx="326.9" cy="347.3" r="2.8"/>
		<circle fill="#E6E3E4" cx="337.3" cy="347.3" r="2.8"/>
		<circle fill="#E6E3E4" cx="347.7" cy="347.3" r="2.8"/>
		<circle fill="#E6E3E4" cx="358.2" cy="347.3" r="2.8"/>
		<circle fill="#E6E3E4" cx="368.6" cy="347.3" r="2.8"/>
		<circle fill="#E6E3E4" cx="379" cy="347.3" r="2.8"/>
		<circle fill="#E6E3E4" cx="389.5" cy="347.3" r="2.8"/>
		<circle fill="#E6E3E4" cx="399.9" cy="347.3" r="2.8"/>
		<circle fill="#E6E3E4" cx="410.3" cy="347.3" r="2.8"/>
		<circle fill="#E6E3E4" cx="420.8" cy="347.3" r="2.8"/>
		<circle fill="#E6E3E4" cx="431.2" cy="347.3" r="2.8"/>
	</g>
	<g>
		<circle fill="#E6E3E4" cx="306" cy="357.7" r="2.8"/>
		<circle fill="#E6E3E4" cx="316.4" cy="357.7" r="2.8"/>
		<circle fill="#E6E3E4" cx="326.9" cy="357.7" r="2.8"/>
		<circle fill="#E6E3E4" cx="337.3" cy="357.7" r="2.8"/>
		<circle fill="#E6E3E4" cx="347.7" cy="357.7" r="2.8"/>
		<circle fill="#E6E3E4" cx="358.2" cy="357.7" r="2.8"/>
		<circle fill="#E6E3E4" cx="368.6" cy="357.7" r="2.8"/>
		<circle fill="#E6E3E4" cx="379" cy="357.7" r="2.8"/>
		<circle fill="#E6E3E4" cx="389.5" cy="357.7" r="2.8"/>
		<circle fill="#E6E3E4" cx="399.9" cy="357.7" r="2.8"/>
		<circle fill="#E6E3E4" cx="410.3" cy="357.7" r="2.8"/>
		<circle fill="#E6E3E4" cx="420.8" cy="357.7" r="2.8"/>
		<circle fill="#E6E3E4" cx="431.2" cy="357.7" r="2.8"/>
	</g>
	<g>
		<circle fill="#E6E3E4" cx="306" cy="368.1" r="2.8"/>
		<circle fill="#E6E3E4" cx="316.4" cy="368.1" r="2.8"/>
		<circle fill="#E6E3E4" cx="326.9" cy="368.1" r="2.8"/>
		<circle fill="#E6E3E4" cx="337.3" cy="368.1" r="2.8"/>
		<circle fill="#E6E3E4" cx="347.7" cy="368.1" r="2.8"/>
		<circle fill="#E6E3E4" cx="358.2" cy="368.1" r="2.8"/>
		<circle fill="#E6E3E4" cx="368.6" cy="368.1" r="2.8"/>
		<circle fill="#E6E3E4" cx="379" cy="368.1" r="2.8"/>
		<circle fill="#E6E3E4" cx="389.5" cy="368.1" r="2.8"/>
		<circle fill="#E6E3E4" cx="399.9" cy="368.1" r="2.8"/>
		<circle fill="#E6E3E4" cx="410.3" cy="368.1" r="2.8"/>
		<circle fill="#E6E3E4" cx="420.8" cy="368.1" r="2.8"/>
		<circle fill="#E6E3E4" cx="431.2" cy="368.1" r="2.8"/>
	</g>
	<g>
		<circle fill="#E6E3E4" cx="306" cy="378.6" r="2.8"/>
		<circle fill="#E6E3E4" cx="316.4" cy="378.6" r="2.8"/>
		<circle fill="#E6E3E4" cx="326.9" cy="378.6" r="2.8"/>
		<circle fill="#E6E3E4" cx="337.3" cy="378.6" r="2.8"/>
		<circle fill="#E6E3E4" cx="347.7" cy="378.6" r="2.8"/>
		<circle fill="#E6E3E4" cx="358.2" cy="378.6" r="2.8"/>
		<circle fill="#E6E3E4" cx="368.6" cy="378.6" r="2.8"/>
		<circle fill="#E6E3E4" cx="379" cy="378.6" r="2.8"/>
		<circle fill="#E6E3E4" cx="389.5" cy="378.6" r="2.8"/>
		<circle fill="#E6E3E4" cx="399.9" cy="378.6" r="2.8"/>
		<circle fill="#E6E3E4" cx="410.3" cy="378.6" r="2.8"/>
		<circle fill="#E6E3E4" cx="420.8" cy="378.6" r="2.8"/>
		<circle fill="#E6E3E4" cx="431.2" cy="378.6" r="2.8"/>
	</g>
	<g>
		<circle fill="#E6E3E4" cx="306" cy="389" r="2.8"/>
		<circle fill="#E6E3E4" cx="316.4" cy="389" r="2.8"/>
		<circle fill="#E6E3E4" cx="326.9" cy="389" r="2.8"/>
		<circle fill="#E6E3E4" cx="337.3" cy="389" r="2.8"/>
		<circle fill="#E6E3E4" cx="347.7" cy="389" r="2.8"/>
		<circle fill="#E6E3E4" cx="358.2" cy="389" r="2.8"/>
		<circle fill="#E6E3E4" cx="368.6" cy="389" r="2.8"/>
		<circle fill="#E6E3E4" cx="379" cy="389" r="2.8"/>
		<circle fill="#E6E3E4" cx="389.5" cy="389" r="2.8"/>
		<circle fill="#E6E3E4" cx="399.9" cy="389" r="2.8"/>
		<circle fill="#E6E3E4" cx="410.3" cy="389" r="2.8"/>
		<circle fill="#E6E3E4" cx="420.8" cy="389" r="2.8"/>
		<circle fill="#E6E3E4" cx="431.2" cy="389" r="2.8"/>
	</g>
	<g>
		<circle fill="#E6E3E4" cx="306" cy="399.4" r="2.8"/>
		<circle fill="#E6E3E4" cx="316.4" cy="399.4" r="2.8"/>
		<circle fill="#E6E3E4" cx="326.9" cy="399.4" r="2.8"/>
		<circle fill="#E6E3E4" cx="337.3" cy="399.4" r="2.8"/>
		<circle fill="#E6E3E4" cx="347.7" cy="399.4" r="2.8"/>
		<circle fill="#E6E3E4" cx="358.2" cy="399.4" r="2.8"/>
		<circle fill="#E6E3E4" cx="368.6" cy="399.4" r="2.8"/>
		<circle fill="#E6E3E4" cx="379" cy="399.4" r="2.8"/>
		<circle fill="#E6E3E4" cx="389.5" cy="399.4" r="2.8"/>
		<circle fill="#E6E3E4" cx="399.9" cy="399.4" r="2.8"/>
		<circle fill="#E6E3E4" cx="410.3" cy="399.4" r="2.8"/>
		<circle fill="#E6E3E4" cx="420.8" cy="399.4" r="2.8"/>
		<circle fill="#E6E3E4" cx="431.2" cy="399.4" r="2.8"/>
	</g>
	<g>
		<circle fill="#E6E3E4" cx="306" cy="409.9" r="2.8"/>
		<circle fill="#E6E3E4" cx="316.4" cy="409.9" r="2.8"/>
		<circle fill="#E6E3E4" cx="326.9" cy="409.9" r="2.8"/>
		<circle fill="#E6E3E4" cx="337.3" cy="409.9" r="2.8"/>
		<circle fill="#E6E3E4" cx="347.7" cy="409.9" r="2.8"/>
		<circle fill="#E6E3E4" cx="358.2" cy="409.9" r="2.8"/>
		<circle fill="#E6E3E4" cx="368.6" cy="409.9" r="2.8"/>
		<circle fill="#E6E3E4" cx="379" cy="409.9" r="2.8"/>
		<circle fill="#E6E3E4" cx="389.5" cy="409.9" r="2.8"/>
		<circle fill="#E6E3E4" cx="399.9" cy="409.9" r="2.8"/>
		<circle fill="#E6E3E4" cx="410.3" cy="409.9" r="2.8"/>
		<circle fill="#E6E3E4" cx="420.8" cy="409.9" r="2.8"/>
		<circle fill="#E6E3E4" cx="431.2" cy="409.9" r="2.8"/>
	</g>
	<g>
		<circle fill="#E6E3E4" cx="306" cy="420.3" r="2.8"/>
		<circle fill="#E6E3E4" cx="316.4" cy="420.3" r="2.8"/>
		<circle fill="#E6E3E4" cx="326.9" cy="420.3" r="2.8"/>
		<circle fill="#E6E3E4" cx="337.3" cy="420.3" r="2.8"/>
		<circle fill="#E6E3E4" cx="347.7" cy="420.3" r="2.8"/>
		<circle fill="#E6E3E4" cx="358.2" cy="420.3" r="2.8"/>
		<circle fill="#E6E3E4" cx="368.6" cy="420.3" r="2.8"/>
		<circle fill="#E6E3E4" cx="379" cy="420.3" r="2.8"/>
		<circle fill="#E6E3E4" cx="389.5" cy="420.3" r="2.8"/>
		<circle fill="#E6E3E4" cx="399.9" cy="420.3" r="2.8"/>
		<circle fill="#E6E3E4" cx="410.3" cy="420.3" r="2.8"/>
		<circle fill="#E6E3E4" cx="420.8" cy="420.3" r="2.8"/>
		<circle fill="#E6E3E4" cx="431.2" cy="420.3" r="2.8"/>
	</g>
	<g>
		<circle fill="#E6E3E4" cx="306" cy="430.7" r="2.8"/>
		<circle fill="#E6E3E4" cx="316.4" cy="430.7" r="2.8"/>
		<circle fill="#E6E3E4" cx="326.9" cy="430.7" r="2.8"/>
		<circle fill="#E6E3E4" cx="337.3" cy="430.7" r="2.8"/>
		<circle fill="#E6E3E4" cx="347.7" cy="430.7" r="2.8"/>
		<circle fill="#E6E3E4" cx="358.2" cy="430.7" r="2.8"/>
		<circle fill="#E6E3E4" cx="368.6" cy="430.7" r="2.8"/>
		<circle fill="#E6E3E4" cx="379" cy="430.7" r="2.8"/>
		<circle fill="#E6E3E4" cx="389.5" cy="430.7" r="2.8"/>
		<circle fill="#E6E3E4" cx="399.9" cy="430.7" r="2.8"/>
		<circle fill="#E6E3E4" cx="410.3" cy="430.7" r="2.8"/>
		<circle fill="#E6E3E4" cx="420.8" cy="430.7" r="2.8"/>
		<circle fill="#E6E3E4" cx="431.2" cy="430.7" r="2.8"/>
	</g>
</g>
</svg>
