<?xml version="1.0" encoding="utf-8"?>
<!-- Generator: Adobe Illustrator 22.0.1, SVG Export Plug-In . SVG Version: 6.00 Build 0)  -->
<svg version="1.1" id="Layer_1" xmlns="http://www.w3.org/2000/svg" xmlns:xlink="http://www.w3.org/1999/xlink" x="0px" y="0px"
	 viewBox="0 0 600 600" enable-background="new 0 0 600 600" xml:space="preserve">
<g>
	<g>
		<g>
			<rect x="20" y="25.1" fill="#CCCCCC" width="12.1" height="1.6"/>
			
				<rect x="20" y="25.1" transform="matrix(6.123234e-17 -1 1 6.123234e-17 0.125 52.0197)" fill="#CCCCCC" width="12.1" height="1.6"/>
		</g>
		<g>
			<rect x="80.7" y="25.1" fill="#CCCCCC" width="12.1" height="1.6"/>
			
				<rect x="80.7" y="25.1" transform="matrix(6.123234e-17 -1 1 6.123234e-17 60.8487 112.7434)" fill="#CCCCCC" width="12.1" height="1.6"/>
		</g>
		<g>
			<rect x="141.4" y="25.1" fill="#CCCCCC" width="12.1" height="1.6"/>
			
				<rect x="141.4" y="25.1" transform="matrix(6.123234e-17 -1 1 6.123234e-17 121.5724 173.4671)" fill="#CCCCCC" width="12.1" height="1.6"/>
		</g>
		<g>
			<rect x="202.2" y="25.1" fill="#CCCCCC" width="12.1" height="1.6"/>
			
				<rect x="202.2" y="25.1" transform="matrix(6.123234e-17 -1 1 6.123234e-17 182.2961 234.1908)" fill="#CCCCCC" width="12.1" height="1.6"/>
		</g>
		<g>
			<rect x="262.9" y="25.1" fill="#CCCCCC" width="12.1" height="1.6"/>
			
				<rect x="262.9" y="25.1" transform="matrix(6.123234e-17 -1 1 6.123234e-17 243.0197 294.9145)" fill="#CCCCCC" width="12.1" height="1.6"/>
		</g>
		<g>
			<rect x="323.6" y="25.1" fill="#CCCCCC" width="12.1" height="1.6"/>
			
				<rect x="323.6" y="25.1" transform="matrix(6.123234e-17 -1 1 6.123234e-17 303.7434 355.6382)" fill="#CCCCCC" width="12.1" height="1.6"/>
		</g>
		<g>
			<rect x="384.3" y="25.1" fill="#CCCCCC" width="12.1" height="1.6"/>
			
				<rect x="384.3" y="25.1" transform="matrix(6.123234e-17 -1 1 6.123234e-17 364.4671 416.3618)" fill="#CCCCCC" width="12.1" height="1.6"/>
		</g>
		<g>
			<rect x="445.1" y="25.1" fill="#CCCCCC" width="12.1" height="1.6"/>
			
				<rect x="445.1" y="25.1" transform="matrix(6.123234e-17 -1 1 6.123234e-17 425.1908 477.0855)" fill="#CCCCCC" width="12.1" height="1.6"/>
		</g>
		<g>
			<rect x="505.8" y="25.1" fill="#CCCCCC" width="12.1" height="1.6"/>
			
				<rect x="505.8" y="25.1" transform="matrix(6.123234e-17 -1 1 6.123234e-17 485.9145 537.8092)" fill="#CCCCCC" width="12.1" height="1.6"/>
		</g>
		<g>
			<rect x="566.5" y="25.1" fill="#CCCCCC" width="12.1" height="1.6"/>
			
				<rect x="566.5" y="25.1" transform="matrix(6.123234e-17 -1 1 6.123234e-17 546.6382 598.5329)" fill="#CCCCCC" width="12.1" height="1.6"/>
		</g>
		<g>
			<rect x="627.2" y="25.1" fill="#CCCCCC" width="12.1" height="1.6"/>
			
				<rect x="627.2" y="25.1" transform="matrix(6.123234e-17 -1 1 6.123234e-17 607.3618 659.2566)" fill="#CCCCCC" width="12.1" height="1.6"/>
		</g>
		<g>
			<rect x="688" y="25.1" fill="#CCCCCC" width="12.1" height="1.6"/>
			
				<rect x="688" y="25.1" transform="matrix(6.123234e-17 -1 1 6.123234e-17 668.0855 719.9803)" fill="#CCCCCC" width="12.1" height="1.6"/>
		</g>
		<g>
			<rect x="748.7" y="25.1" fill="#CCCCCC" width="12.1" height="1.6"/>
			
				<rect x="748.7" y="25.1" transform="matrix(6.123234e-17 -1 1 6.123234e-17 728.8092 780.7039)" fill="#CCCCCC" width="12.1" height="1.6"/>
		</g>
		<g>
			<rect x="809.4" y="25.1" fill="#CCCCCC" width="12.1" height="1.6"/>
			
				<rect x="809.4" y="25.1" transform="matrix(6.123234e-17 -1 1 6.123234e-17 789.5329 841.4276)" fill="#CCCCCC" width="12.1" height="1.6"/>
		</g>
		<g>
			<rect x="870.1" y="25.1" fill="#CCCCCC" width="12.1" height="1.6"/>
			
				<rect x="870.1" y="25.1" transform="matrix(6.123234e-17 -1 1 6.123234e-17 850.2566 902.1513)" fill="#CCCCCC" width="12.1" height="1.6"/>
		</g>
		<g>
			<rect x="930.9" y="25.1" fill="#CCCCCC" width="12.1" height="1.6"/>
			
				<rect x="930.9" y="25.1" transform="matrix(6.123234e-17 -1 1 6.123234e-17 910.9803 962.875)" fill="#CCCCCC" width="12.1" height="1.6"/>
		</g>
	</g>
	<g>
		<g>
			<rect x="20" y="85.9" fill="#CCCCCC" width="12.1" height="1.6"/>
			
				<rect x="20" y="85.9" transform="matrix(6.123234e-17 -1 1 6.123234e-17 -60.5987 112.7434)" fill="#CCCCCC" width="12.1" height="1.6"/>
		</g>
		<g>
			<rect x="80.7" y="85.9" fill="#CCCCCC" width="12.1" height="1.6"/>
			
				<rect x="80.7" y="85.9" transform="matrix(6.123234e-17 -1 1 6.123234e-17 0.125 173.4671)" fill="#CCCCCC" width="12.1" height="1.6"/>
		</g>
		<g>
			<rect x="141.4" y="85.9" fill="#CCCCCC" width="12.1" height="1.6"/>
			
				<rect x="141.4" y="85.9" transform="matrix(6.123234e-17 -1 1 6.123234e-17 60.8487 234.1908)" fill="#CCCCCC" width="12.1" height="1.6"/>
		</g>
		<g>
			<rect x="202.2" y="85.9" fill="#CCCCCC" width="12.1" height="1.6"/>
			
				<rect x="202.2" y="85.9" transform="matrix(6.123234e-17 -1 1 6.123234e-17 121.5724 294.9145)" fill="#CCCCCC" width="12.1" height="1.6"/>
		</g>
		<g>
			<rect x="262.9" y="85.9" fill="#CCCCCC" width="12.1" height="1.6"/>
			
				<rect x="262.9" y="85.9" transform="matrix(6.123234e-17 -1 1 6.123234e-17 182.2961 355.6382)" fill="#CCCCCC" width="12.1" height="1.6"/>
		</g>
		<g>
			<rect x="323.6" y="85.9" fill="#CCCCCC" width="12.1" height="1.6"/>
			
				<rect x="323.6" y="85.9" transform="matrix(6.123234e-17 -1 1 6.123234e-17 243.0197 416.3618)" fill="#CCCCCC" width="12.1" height="1.6"/>
		</g>
		<g>
			<rect x="384.3" y="85.9" fill="#CCCCCC" width="12.1" height="1.6"/>
			
				<rect x="384.3" y="85.9" transform="matrix(6.123234e-17 -1 1 6.123234e-17 303.7434 477.0855)" fill="#CCCCCC" width="12.1" height="1.6"/>
		</g>
		<g>
			<rect x="445.1" y="85.9" fill="#CCCCCC" width="12.1" height="1.6"/>
			
				<rect x="445.1" y="85.9" transform="matrix(6.123234e-17 -1 1 6.123234e-17 364.4671 537.8092)" fill="#CCCCCC" width="12.1" height="1.6"/>
		</g>
		<g>
			<rect x="505.8" y="85.9" fill="#CCCCCC" width="12.1" height="1.6"/>
			
				<rect x="505.8" y="85.9" transform="matrix(6.123234e-17 -1 1 6.123234e-17 425.1908 598.5329)" fill="#CCCCCC" width="12.1" height="1.6"/>
		</g>
		<g>
			<rect x="566.5" y="85.9" fill="#CCCCCC" width="12.1" height="1.6"/>
			
				<rect x="566.5" y="85.9" transform="matrix(6.123234e-17 -1 1 6.123234e-17 485.9145 659.2566)" fill="#CCCCCC" width="12.1" height="1.6"/>
		</g>
		<g>
			<rect x="627.2" y="85.9" fill="#CCCCCC" width="12.1" height="1.6"/>
			
				<rect x="627.2" y="85.9" transform="matrix(6.123234e-17 -1 1 6.123234e-17 546.6382 719.9803)" fill="#CCCCCC" width="12.1" height="1.6"/>
		</g>
		<g>
			<rect x="688" y="85.9" fill="#CCCCCC" width="12.1" height="1.6"/>
			
				<rect x="688" y="85.9" transform="matrix(6.123234e-17 -1 1 6.123234e-17 607.3618 780.7039)" fill="#CCCCCC" width="12.1" height="1.6"/>
		</g>
		<g>
			<rect x="748.7" y="85.9" fill="#CCCCCC" width="12.1" height="1.6"/>
			
				<rect x="748.7" y="85.9" transform="matrix(6.123234e-17 -1 1 6.123234e-17 668.0855 841.4276)" fill="#CCCCCC" width="12.1" height="1.6"/>
		</g>
		<g>
			<rect x="809.4" y="85.9" fill="#CCCCCC" width="12.1" height="1.6"/>
			
				<rect x="809.4" y="85.9" transform="matrix(6.123234e-17 -1 1 6.123234e-17 728.8092 902.1513)" fill="#CCCCCC" width="12.1" height="1.6"/>
		</g>
		<g>
			<rect x="870.1" y="85.9" fill="#CCCCCC" width="12.1" height="1.6"/>
			
				<rect x="870.1" y="85.9" transform="matrix(6.123234e-17 -1 1 6.123234e-17 789.5329 962.875)" fill="#CCCCCC" width="12.1" height="1.6"/>
		</g>
		<g>
			<rect x="930.9" y="85.9" fill="#CCCCCC" width="12.1" height="1.6"/>
			
				<rect x="930.9" y="85.9" transform="matrix(6.123234e-17 -1 1 6.123234e-17 850.2566 1023.5987)" fill="#CCCCCC" width="12.1" height="1.6"/>
		</g>
	</g>
	<g>
		<g>
			<rect x="20" y="146.6" fill="#CCCCCC" width="12.1" height="1.6"/>
			
				<rect x="20" y="146.6" transform="matrix(6.123234e-17 -1 1 6.123234e-17 -121.3224 173.4671)" fill="#CCCCCC" width="12.1" height="1.6"/>
		</g>
		<g>
			<rect x="80.7" y="146.6" fill="#CCCCCC" width="12.1" height="1.6"/>
			
				<rect x="80.7" y="146.6" transform="matrix(6.123234e-17 -1 1 6.123234e-17 -60.5987 234.1908)" fill="#CCCCCC" width="12.1" height="1.6"/>
		</g>
		<g>
			<rect x="141.4" y="146.6" fill="#CCCCCC" width="12.1" height="1.6"/>
			
				<rect x="141.4" y="146.6" transform="matrix(6.123234e-17 -1 1 6.123234e-17 0.125 294.9145)" fill="#CCCCCC" width="12.1" height="1.6"/>
		</g>
		<g>
			<rect x="202.2" y="146.6" fill="#CCCCCC" width="12.1" height="1.6"/>
			
				<rect x="202.2" y="146.6" transform="matrix(6.123234e-17 -1 1 6.123234e-17 60.8487 355.6382)" fill="#CCCCCC" width="12.1" height="1.6"/>
		</g>
		<g>
			<rect x="262.9" y="146.6" fill="#CCCCCC" width="12.1" height="1.6"/>
			
				<rect x="262.9" y="146.6" transform="matrix(6.123234e-17 -1 1 6.123234e-17 121.5724 416.3618)" fill="#CCCCCC" width="12.1" height="1.6"/>
		</g>
		<g>
			<rect x="323.6" y="146.6" fill="#CCCCCC" width="12.1" height="1.6"/>
			
				<rect x="323.6" y="146.6" transform="matrix(6.123234e-17 -1 1 6.123234e-17 182.2961 477.0855)" fill="#CCCCCC" width="12.1" height="1.6"/>
		</g>
		<g>
			<rect x="384.3" y="146.6" fill="#CCCCCC" width="12.1" height="1.6"/>
			
				<rect x="384.3" y="146.6" transform="matrix(6.123234e-17 -1 1 6.123234e-17 243.0197 537.8092)" fill="#CCCCCC" width="12.1" height="1.6"/>
		</g>
		<g>
			<rect x="445.1" y="146.6" fill="#CCCCCC" width="12.1" height="1.6"/>
			
				<rect x="445.1" y="146.6" transform="matrix(6.123234e-17 -1 1 6.123234e-17 303.7434 598.5329)" fill="#CCCCCC" width="12.1" height="1.6"/>
		</g>
		<g>
			<rect x="505.8" y="146.6" fill="#CCCCCC" width="12.1" height="1.6"/>
			
				<rect x="505.8" y="146.6" transform="matrix(6.123234e-17 -1 1 6.123234e-17 364.4671 659.2566)" fill="#CCCCCC" width="12.1" height="1.6"/>
		</g>
		<g>
			<rect x="566.5" y="146.6" fill="#CCCCCC" width="12.1" height="1.6"/>
			
				<rect x="566.5" y="146.6" transform="matrix(6.123234e-17 -1 1 6.123234e-17 425.1908 719.9803)" fill="#CCCCCC" width="12.1" height="1.6"/>
		</g>
		<g>
			<rect x="627.2" y="146.6" fill="#CCCCCC" width="12.1" height="1.6"/>
			
				<rect x="627.2" y="146.6" transform="matrix(6.123234e-17 -1 1 6.123234e-17 485.9145 780.7039)" fill="#CCCCCC" width="12.1" height="1.6"/>
		</g>
		<g>
			<rect x="688" y="146.6" fill="#CCCCCC" width="12.1" height="1.6"/>
			
				<rect x="688" y="146.6" transform="matrix(6.123234e-17 -1 1 6.123234e-17 546.6382 841.4276)" fill="#CCCCCC" width="12.1" height="1.6"/>
		</g>
		<g>
			<rect x="748.7" y="146.6" fill="#CCCCCC" width="12.1" height="1.6"/>
			
				<rect x="748.7" y="146.6" transform="matrix(6.123234e-17 -1 1 6.123234e-17 607.3618 902.1513)" fill="#CCCCCC" width="12.1" height="1.6"/>
		</g>
		<g>
			<rect x="809.4" y="146.6" fill="#CCCCCC" width="12.1" height="1.6"/>
			
				<rect x="809.4" y="146.6" transform="matrix(6.123234e-17 -1 1 6.123234e-17 668.0855 962.875)" fill="#CCCCCC" width="12.1" height="1.6"/>
		</g>
		<g>
			<rect x="870.1" y="146.6" fill="#CCCCCC" width="12.1" height="1.6"/>
			
				<rect x="870.1" y="146.6" transform="matrix(6.123234e-17 -1 1 6.123234e-17 728.8092 1023.5987)" fill="#CCCCCC" width="12.1" height="1.6"/>
		</g>
		<g>
			<rect x="930.9" y="146.6" fill="#CCCCCC" width="12.1" height="1.6"/>
			
				<rect x="930.9" y="146.6" transform="matrix(6.123234e-17 -1 1 6.123234e-17 789.5329 1084.3224)" fill="#CCCCCC" width="12.1" height="1.6"/>
		</g>
	</g>
	<g>
		<g>
			<rect x="20" y="207.3" fill="#CCCCCC" width="12.1" height="1.6"/>
			
				<rect x="20" y="207.3" transform="matrix(6.123234e-17 -1 1 6.123234e-17 -182.0461 234.1908)" fill="#CCCCCC" width="12.1" height="1.6"/>
		</g>
		<g>
			<rect x="80.7" y="207.3" fill="#CCCCCC" width="12.1" height="1.6"/>
			
				<rect x="80.7" y="207.3" transform="matrix(6.123234e-17 -1 1 6.123234e-17 -121.3224 294.9145)" fill="#CCCCCC" width="12.1" height="1.6"/>
		</g>
		<g>
			<rect x="141.4" y="207.3" fill="#CCCCCC" width="12.1" height="1.6"/>
			
				<rect x="141.4" y="207.3" transform="matrix(6.123234e-17 -1 1 6.123234e-17 -60.5987 355.6382)" fill="#CCCCCC" width="12.1" height="1.6"/>
		</g>
		<g>
			<rect x="202.2" y="207.3" fill="#CCCCCC" width="12.1" height="1.6"/>
			
				<rect x="202.2" y="207.3" transform="matrix(6.123234e-17 -1 1 6.123234e-17 0.125 416.3618)" fill="#CCCCCC" width="12.1" height="1.6"/>
		</g>
		<g>
			<rect x="262.9" y="207.3" fill="#CCCCCC" width="12.1" height="1.6"/>
			
				<rect x="262.9" y="207.3" transform="matrix(6.123234e-17 -1 1 6.123234e-17 60.8487 477.0855)" fill="#CCCCCC" width="12.1" height="1.6"/>
		</g>
		<g>
			<rect x="323.6" y="207.3" fill="#CCCCCC" width="12.1" height="1.6"/>
			
				<rect x="323.6" y="207.3" transform="matrix(6.123234e-17 -1 1 6.123234e-17 121.5724 537.8092)" fill="#CCCCCC" width="12.1" height="1.6"/>
		</g>
		<g>
			<rect x="384.3" y="207.3" fill="#CCCCCC" width="12.1" height="1.6"/>
			
				<rect x="384.3" y="207.3" transform="matrix(6.123234e-17 -1 1 6.123234e-17 182.2961 598.5329)" fill="#CCCCCC" width="12.1" height="1.6"/>
		</g>
		<g>
			<rect x="445.1" y="207.3" fill="#CCCCCC" width="12.1" height="1.6"/>
			
				<rect x="445.1" y="207.3" transform="matrix(6.123234e-17 -1 1 6.123234e-17 243.0197 659.2566)" fill="#CCCCCC" width="12.1" height="1.6"/>
		</g>
		<g>
			<rect x="505.8" y="207.3" fill="#CCCCCC" width="12.1" height="1.6"/>
			
				<rect x="505.8" y="207.3" transform="matrix(6.123234e-17 -1 1 6.123234e-17 303.7434 719.9803)" fill="#CCCCCC" width="12.1" height="1.6"/>
		</g>
		<g>
			<rect x="566.5" y="207.3" fill="#CCCCCC" width="12.1" height="1.6"/>
			
				<rect x="566.5" y="207.3" transform="matrix(6.123234e-17 -1 1 6.123234e-17 364.4671 780.7039)" fill="#CCCCCC" width="12.1" height="1.6"/>
		</g>
		<g>
			<rect x="627.2" y="207.3" fill="#CCCCCC" width="12.1" height="1.6"/>
			
				<rect x="627.2" y="207.3" transform="matrix(6.123234e-17 -1 1 6.123234e-17 425.1908 841.4276)" fill="#CCCCCC" width="12.1" height="1.6"/>
		</g>
		<g>
			<rect x="688" y="207.3" fill="#CCCCCC" width="12.1" height="1.6"/>
			
				<rect x="688" y="207.3" transform="matrix(6.123234e-17 -1 1 6.123234e-17 485.9145 902.1513)" fill="#CCCCCC" width="12.1" height="1.6"/>
		</g>
		<g>
			<rect x="748.7" y="207.3" fill="#CCCCCC" width="12.1" height="1.6"/>
			
				<rect x="748.7" y="207.3" transform="matrix(6.123234e-17 -1 1 6.123234e-17 546.6382 962.875)" fill="#CCCCCC" width="12.1" height="1.6"/>
		</g>
		<g>
			<rect x="809.4" y="207.3" fill="#CCCCCC" width="12.1" height="1.6"/>
			
				<rect x="809.4" y="207.3" transform="matrix(6.123234e-17 -1 1 6.123234e-17 607.3618 1023.5987)" fill="#CCCCCC" width="12.1" height="1.6"/>
		</g>
		<g>
			<rect x="870.1" y="207.3" fill="#CCCCCC" width="12.1" height="1.6"/>
			
				<rect x="870.1" y="207.3" transform="matrix(6.123234e-17 -1 1 6.123234e-17 668.0855 1084.3224)" fill="#CCCCCC" width="12.1" height="1.6"/>
		</g>
		<g>
			<rect x="930.9" y="207.3" fill="#CCCCCC" width="12.1" height="1.6"/>
			
				<rect x="930.9" y="207.3" transform="matrix(6.123234e-17 -1 1 6.123234e-17 728.8092 1145.046)" fill="#CCCCCC" width="12.1" height="1.6"/>
		</g>
	</g>
	<g>
		<g>
			<rect x="20" y="268" fill="#CCCCCC" width="12.1" height="1.6"/>
			
				<rect x="20" y="268" transform="matrix(6.123234e-17 -1 1 6.123234e-17 -242.7697 294.9145)" fill="#CCCCCC" width="12.1" height="1.6"/>
		</g>
		<g>
			<rect x="80.7" y="268" fill="#CCCCCC" width="12.1" height="1.6"/>
			
				<rect x="80.7" y="268" transform="matrix(6.123234e-17 -1 1 6.123234e-17 -182.0461 355.6382)" fill="#CCCCCC" width="12.1" height="1.6"/>
		</g>
		<g>
			<rect x="141.4" y="268" fill="#CCCCCC" width="12.1" height="1.6"/>
			
				<rect x="141.4" y="268" transform="matrix(6.123234e-17 -1 1 6.123234e-17 -121.3224 416.3618)" fill="#CCCCCC" width="12.1" height="1.6"/>
		</g>
		<g>
			<rect x="202.2" y="268" fill="#CCCCCC" width="12.1" height="1.6"/>
			
				<rect x="202.2" y="268" transform="matrix(6.123234e-17 -1 1 6.123234e-17 -60.5987 477.0855)" fill="#CCCCCC" width="12.1" height="1.6"/>
		</g>
		<g>
			<rect x="262.9" y="268" fill="#CCCCCC" width="12.1" height="1.6"/>
			
				<rect x="262.9" y="268" transform="matrix(6.123234e-17 -1 1 6.123234e-17 0.125 537.8092)" fill="#CCCCCC" width="12.1" height="1.6"/>
		</g>
		<g>
			<rect x="323.6" y="268" fill="#CCCCCC" width="12.1" height="1.6"/>
			
				<rect x="323.6" y="268" transform="matrix(6.123234e-17 -1 1 6.123234e-17 60.8487 598.5329)" fill="#CCCCCC" width="12.1" height="1.6"/>
		</g>
		<g>
			<rect x="384.3" y="268" fill="#CCCCCC" width="12.1" height="1.6"/>
			
				<rect x="384.3" y="268" transform="matrix(6.123234e-17 -1 1 6.123234e-17 121.5724 659.2566)" fill="#CCCCCC" width="12.1" height="1.6"/>
		</g>
		<g>
			<rect x="445.1" y="268" fill="#CCCCCC" width="12.1" height="1.6"/>
			
				<rect x="445.1" y="268" transform="matrix(6.123234e-17 -1 1 6.123234e-17 182.2961 719.9803)" fill="#CCCCCC" width="12.1" height="1.6"/>
		</g>
		<g>
			<rect x="505.8" y="268" fill="#CCCCCC" width="12.1" height="1.6"/>
			
				<rect x="505.8" y="268" transform="matrix(6.123234e-17 -1 1 6.123234e-17 243.0197 780.7039)" fill="#CCCCCC" width="12.1" height="1.6"/>
		</g>
		<g>
			<rect x="566.5" y="268" fill="#CCCCCC" width="12.1" height="1.6"/>
			
				<rect x="566.5" y="268" transform="matrix(6.123234e-17 -1 1 6.123234e-17 303.7434 841.4276)" fill="#CCCCCC" width="12.1" height="1.6"/>
		</g>
		<g>
			<rect x="627.2" y="268" fill="#CCCCCC" width="12.1" height="1.6"/>
			
				<rect x="627.2" y="268" transform="matrix(6.123234e-17 -1 1 6.123234e-17 364.4671 902.1513)" fill="#CCCCCC" width="12.1" height="1.6"/>
		</g>
		<g>
			<rect x="688" y="268" fill="#CCCCCC" width="12.1" height="1.6"/>
			
				<rect x="688" y="268" transform="matrix(6.123234e-17 -1 1 6.123234e-17 425.1908 962.875)" fill="#CCCCCC" width="12.1" height="1.6"/>
		</g>
		<g>
			<rect x="748.7" y="268" fill="#CCCCCC" width="12.1" height="1.6"/>
			
				<rect x="748.7" y="268" transform="matrix(6.123234e-17 -1 1 6.123234e-17 485.9145 1023.5987)" fill="#CCCCCC" width="12.1" height="1.6"/>
		</g>
		<g>
			<rect x="809.4" y="268" fill="#CCCCCC" width="12.1" height="1.6"/>
			
				<rect x="809.4" y="268" transform="matrix(6.123234e-17 -1 1 6.123234e-17 546.6382 1084.3224)" fill="#CCCCCC" width="12.1" height="1.6"/>
		</g>
		<g>
			<rect x="870.1" y="268" fill="#CCCCCC" width="12.1" height="1.6"/>
			
				<rect x="870.1" y="268" transform="matrix(6.123234e-17 -1 1 6.123234e-17 607.3618 1145.046)" fill="#CCCCCC" width="12.1" height="1.6"/>
		</g>
		<g>
			<rect x="930.9" y="268" fill="#CCCCCC" width="12.1" height="1.6"/>
			
				<rect x="930.9" y="268" transform="matrix(6.123234e-17 -1 1 6.123234e-17 668.0855 1205.7698)" fill="#CCCCCC" width="12.1" height="1.6"/>
		</g>
	</g>
	<g>
		<g>
			<rect x="20" y="328.8" fill="#CCCCCC" width="12.1" height="1.6"/>
			
				<rect x="20" y="328.8" transform="matrix(6.123234e-17 -1 1 6.123234e-17 -303.4934 355.6382)" fill="#CCCCCC" width="12.1" height="1.6"/>
		</g>
		<g>
			<rect x="80.7" y="328.8" fill="#CCCCCC" width="12.1" height="1.6"/>
			
				<rect x="80.7" y="328.8" transform="matrix(6.123234e-17 -1 1 6.123234e-17 -242.7697 416.3618)" fill="#CCCCCC" width="12.1" height="1.6"/>
		</g>
		<g>
			<rect x="141.4" y="328.8" fill="#CCCCCC" width="12.1" height="1.6"/>
			
				<rect x="141.4" y="328.8" transform="matrix(6.123234e-17 -1 1 6.123234e-17 -182.0461 477.0855)" fill="#CCCCCC" width="12.1" height="1.6"/>
		</g>
		<g>
			<rect x="202.2" y="328.8" fill="#CCCCCC" width="12.1" height="1.6"/>
			
				<rect x="202.2" y="328.8" transform="matrix(6.123234e-17 -1 1 6.123234e-17 -121.3224 537.8092)" fill="#CCCCCC" width="12.1" height="1.6"/>
		</g>
		<g>
			<rect x="262.9" y="328.8" fill="#CCCCCC" width="12.1" height="1.6"/>
			
				<rect x="262.9" y="328.8" transform="matrix(6.123234e-17 -1 1 6.123234e-17 -60.5987 598.5329)" fill="#CCCCCC" width="12.1" height="1.6"/>
		</g>
		<g>
			<rect x="323.6" y="328.8" fill="#CCCCCC" width="12.1" height="1.6"/>
			
				<rect x="323.6" y="328.8" transform="matrix(6.123234e-17 -1 1 6.123234e-17 0.125 659.2566)" fill="#CCCCCC" width="12.1" height="1.6"/>
		</g>
		<g>
			<rect x="384.3" y="328.8" fill="#CCCCCC" width="12.1" height="1.6"/>
			
				<rect x="384.3" y="328.8" transform="matrix(6.123234e-17 -1 1 6.123234e-17 60.8487 719.9803)" fill="#CCCCCC" width="12.1" height="1.6"/>
		</g>
		<g>
			<rect x="445.1" y="328.8" fill="#CCCCCC" width="12.1" height="1.6"/>
			
				<rect x="445.1" y="328.8" transform="matrix(6.123234e-17 -1 1 6.123234e-17 121.5724 780.7039)" fill="#CCCCCC" width="12.1" height="1.6"/>
		</g>
		<g>
			<rect x="505.8" y="328.8" fill="#CCCCCC" width="12.1" height="1.6"/>
			
				<rect x="505.8" y="328.8" transform="matrix(6.123234e-17 -1 1 6.123234e-17 182.2961 841.4276)" fill="#CCCCCC" width="12.1" height="1.6"/>
		</g>
		<g>
			<rect x="566.5" y="328.8" fill="#CCCCCC" width="12.1" height="1.6"/>
			
				<rect x="566.5" y="328.8" transform="matrix(6.123234e-17 -1 1 6.123234e-17 243.0197 902.1513)" fill="#CCCCCC" width="12.1" height="1.6"/>
		</g>
		<g>
			<rect x="627.2" y="328.8" fill="#CCCCCC" width="12.1" height="1.6"/>
			
				<rect x="627.2" y="328.8" transform="matrix(6.123234e-17 -1 1 6.123234e-17 303.7434 962.875)" fill="#CCCCCC" width="12.1" height="1.6"/>
		</g>
		<g>
			<rect x="688" y="328.8" fill="#CCCCCC" width="12.1" height="1.6"/>
			
				<rect x="688" y="328.8" transform="matrix(6.123234e-17 -1 1 6.123234e-17 364.4671 1023.5987)" fill="#CCCCCC" width="12.1" height="1.6"/>
		</g>
		<g>
			<rect x="748.7" y="328.8" fill="#CCCCCC" width="12.1" height="1.6"/>
			
				<rect x="748.7" y="328.8" transform="matrix(6.123234e-17 -1 1 6.123234e-17 425.1908 1084.3224)" fill="#CCCCCC" width="12.1" height="1.6"/>
		</g>
		<g>
			<rect x="809.4" y="328.8" fill="#CCCCCC" width="12.1" height="1.6"/>
			
				<rect x="809.4" y="328.8" transform="matrix(6.123234e-17 -1 1 6.123234e-17 485.9145 1145.046)" fill="#CCCCCC" width="12.1" height="1.6"/>
		</g>
		<g>
			<rect x="870.1" y="328.8" fill="#CCCCCC" width="12.1" height="1.6"/>
			
				<rect x="870.1" y="328.8" transform="matrix(6.123234e-17 -1 1 6.123234e-17 546.6382 1205.7698)" fill="#CCCCCC" width="12.1" height="1.6"/>
		</g>
		<g>
			<rect x="930.9" y="328.8" fill="#CCCCCC" width="12.1" height="1.6"/>
			
				<rect x="930.9" y="328.8" transform="matrix(6.123234e-17 -1 1 6.123234e-17 607.3618 1266.4934)" fill="#CCCCCC" width="12.1" height="1.6"/>
		</g>
	</g>
	<g>
		<g>
			<rect x="20" y="389.5" fill="#CCCCCC" width="12.1" height="1.6"/>
			
				<rect x="20" y="389.5" transform="matrix(6.123234e-17 -1 1 6.123234e-17 -364.2171 416.3618)" fill="#CCCCCC" width="12.1" height="1.6"/>
		</g>
		<g>
			<rect x="80.7" y="389.5" fill="#CCCCCC" width="12.1" height="1.6"/>
			
				<rect x="80.7" y="389.5" transform="matrix(6.123234e-17 -1 1 6.123234e-17 -303.4934 477.0855)" fill="#CCCCCC" width="12.1" height="1.6"/>
		</g>
		<g>
			<rect x="141.4" y="389.5" fill="#CCCCCC" width="12.1" height="1.6"/>
			
				<rect x="141.4" y="389.5" transform="matrix(6.123234e-17 -1 1 6.123234e-17 -242.7697 537.8092)" fill="#CCCCCC" width="12.1" height="1.6"/>
		</g>
		<g>
			<rect x="202.2" y="389.5" fill="#CCCCCC" width="12.1" height="1.6"/>
			
				<rect x="202.2" y="389.5" transform="matrix(6.123234e-17 -1 1 6.123234e-17 -182.0461 598.5329)" fill="#CCCCCC" width="12.1" height="1.6"/>
		</g>
		<g>
			<rect x="262.9" y="389.5" fill="#CCCCCC" width="12.1" height="1.6"/>
			
				<rect x="262.9" y="389.5" transform="matrix(6.123234e-17 -1 1 6.123234e-17 -121.3224 659.2566)" fill="#CCCCCC" width="12.1" height="1.6"/>
		</g>
		<g>
			<rect x="323.6" y="389.5" fill="#CCCCCC" width="12.1" height="1.6"/>
			
				<rect x="323.6" y="389.5" transform="matrix(6.123234e-17 -1 1 6.123234e-17 -60.5987 719.9803)" fill="#CCCCCC" width="12.1" height="1.6"/>
		</g>
		<g>
			<rect x="384.3" y="389.5" fill="#CCCCCC" width="12.1" height="1.6"/>
			
				<rect x="384.3" y="389.5" transform="matrix(6.123234e-17 -1 1 6.123234e-17 0.125 780.7039)" fill="#CCCCCC" width="12.1" height="1.6"/>
		</g>
		<g>
			<rect x="445.1" y="389.5" fill="#CCCCCC" width="12.1" height="1.6"/>
			
				<rect x="445.1" y="389.5" transform="matrix(6.123234e-17 -1 1 6.123234e-17 60.8487 841.4276)" fill="#CCCCCC" width="12.1" height="1.6"/>
		</g>
		<g>
			<rect x="505.8" y="389.5" fill="#CCCCCC" width="12.1" height="1.6"/>
			
				<rect x="505.8" y="389.5" transform="matrix(6.123234e-17 -1 1 6.123234e-17 121.5724 902.1513)" fill="#CCCCCC" width="12.1" height="1.6"/>
		</g>
		<g>
			<rect x="566.5" y="389.5" fill="#CCCCCC" width="12.1" height="1.6"/>
			
				<rect x="566.5" y="389.5" transform="matrix(6.123234e-17 -1 1 6.123234e-17 182.2961 962.875)" fill="#CCCCCC" width="12.1" height="1.6"/>
		</g>
		<g>
			<rect x="627.2" y="389.5" fill="#CCCCCC" width="12.1" height="1.6"/>
			
				<rect x="627.2" y="389.5" transform="matrix(6.123234e-17 -1 1 6.123234e-17 243.0197 1023.5987)" fill="#CCCCCC" width="12.1" height="1.6"/>
		</g>
		<g>
			<rect x="688" y="389.5" fill="#CCCCCC" width="12.1" height="1.6"/>
			
				<rect x="688" y="389.5" transform="matrix(6.123234e-17 -1 1 6.123234e-17 303.7434 1084.3224)" fill="#CCCCCC" width="12.1" height="1.6"/>
		</g>
		<g>
			<rect x="748.7" y="389.5" fill="#CCCCCC" width="12.1" height="1.6"/>
			
				<rect x="748.7" y="389.5" transform="matrix(6.123234e-17 -1 1 6.123234e-17 364.4671 1145.046)" fill="#CCCCCC" width="12.1" height="1.6"/>
		</g>
		<g>
			<rect x="809.4" y="389.5" fill="#CCCCCC" width="12.1" height="1.6"/>
			
				<rect x="809.4" y="389.5" transform="matrix(6.123234e-17 -1 1 6.123234e-17 425.1908 1205.7698)" fill="#CCCCCC" width="12.1" height="1.6"/>
		</g>
		<g>
			<rect x="870.1" y="389.5" fill="#CCCCCC" width="12.1" height="1.6"/>
			
				<rect x="870.1" y="389.5" transform="matrix(6.123234e-17 -1 1 6.123234e-17 485.9145 1266.4934)" fill="#CCCCCC" width="12.1" height="1.6"/>
		</g>
		<g>
			<rect x="930.9" y="389.5" fill="#CCCCCC" width="12.1" height="1.6"/>
			
				<rect x="930.9" y="389.5" transform="matrix(6.123234e-17 -1 1 6.123234e-17 546.6382 1327.2172)" fill="#CCCCCC" width="12.1" height="1.6"/>
		</g>
	</g>
	<g>
		<g>
			<rect x="20" y="450.2" fill="#CCCCCC" width="12.1" height="1.6"/>
			
				<rect x="20" y="450.2" transform="matrix(6.123234e-17 -1 1 6.123234e-17 -424.9408 477.0855)" fill="#CCCCCC" width="12.1" height="1.6"/>
		</g>
		<g>
			<rect x="80.7" y="450.2" fill="#CCCCCC" width="12.1" height="1.6"/>
			
				<rect x="80.7" y="450.2" transform="matrix(6.123234e-17 -1 1 6.123234e-17 -364.2171 537.8092)" fill="#CCCCCC" width="12.1" height="1.6"/>
		</g>
		<g>
			<rect x="141.4" y="450.2" fill="#CCCCCC" width="12.1" height="1.6"/>
			
				<rect x="141.4" y="450.2" transform="matrix(6.123234e-17 -1 1 6.123234e-17 -303.4934 598.5329)" fill="#CCCCCC" width="12.1" height="1.6"/>
		</g>
		<g>
			<rect x="202.2" y="450.2" fill="#CCCCCC" width="12.1" height="1.6"/>
			
				<rect x="202.2" y="450.2" transform="matrix(6.123234e-17 -1 1 6.123234e-17 -242.7697 659.2566)" fill="#CCCCCC" width="12.1" height="1.6"/>
		</g>
		<g>
			<rect x="262.9" y="450.2" fill="#CCCCCC" width="12.1" height="1.6"/>
			
				<rect x="262.9" y="450.2" transform="matrix(6.123234e-17 -1 1 6.123234e-17 -182.0461 719.9803)" fill="#CCCCCC" width="12.1" height="1.6"/>
		</g>
		<g>
			<rect x="323.6" y="450.2" fill="#CCCCCC" width="12.1" height="1.6"/>
			
				<rect x="323.6" y="450.2" transform="matrix(6.123234e-17 -1 1 6.123234e-17 -121.3224 780.7039)" fill="#CCCCCC" width="12.1" height="1.6"/>
		</g>
		<g>
			<rect x="384.3" y="450.2" fill="#CCCCCC" width="12.1" height="1.6"/>
			
				<rect x="384.3" y="450.2" transform="matrix(6.123234e-17 -1 1 6.123234e-17 -60.5987 841.4276)" fill="#CCCCCC" width="12.1" height="1.6"/>
		</g>
		<g>
			<rect x="445.1" y="450.2" fill="#CCCCCC" width="12.1" height="1.6"/>
			
				<rect x="445.1" y="450.2" transform="matrix(6.123234e-17 -1 1 6.123234e-17 0.125 902.1513)" fill="#CCCCCC" width="12.1" height="1.6"/>
		</g>
		<g>
			<rect x="505.8" y="450.2" fill="#CCCCCC" width="12.1" height="1.6"/>
			
				<rect x="505.8" y="450.2" transform="matrix(6.123234e-17 -1 1 6.123234e-17 60.8487 962.875)" fill="#CCCCCC" width="12.1" height="1.6"/>
		</g>
		<g>
			<rect x="566.5" y="450.2" fill="#CCCCCC" width="12.1" height="1.6"/>
			
				<rect x="566.5" y="450.2" transform="matrix(6.123234e-17 -1 1 6.123234e-17 121.5724 1023.5987)" fill="#CCCCCC" width="12.1" height="1.6"/>
		</g>
		<g>
			<rect x="627.2" y="450.2" fill="#CCCCCC" width="12.1" height="1.6"/>
			
				<rect x="627.2" y="450.2" transform="matrix(6.123234e-17 -1 1 6.123234e-17 182.2961 1084.3224)" fill="#CCCCCC" width="12.1" height="1.6"/>
		</g>
		<g>
			<rect x="688" y="450.2" fill="#CCCCCC" width="12.1" height="1.6"/>
			
				<rect x="688" y="450.2" transform="matrix(6.123234e-17 -1 1 6.123234e-17 243.0197 1145.046)" fill="#CCCCCC" width="12.1" height="1.6"/>
		</g>
		<g>
			<rect x="748.7" y="450.2" fill="#CCCCCC" width="12.1" height="1.6"/>
			
				<rect x="748.7" y="450.2" transform="matrix(6.123234e-17 -1 1 6.123234e-17 303.7434 1205.7698)" fill="#CCCCCC" width="12.1" height="1.6"/>
		</g>
		<g>
			<rect x="809.4" y="450.2" fill="#CCCCCC" width="12.1" height="1.6"/>
			
				<rect x="809.4" y="450.2" transform="matrix(6.123234e-17 -1 1 6.123234e-17 364.4671 1266.4934)" fill="#CCCCCC" width="12.1" height="1.6"/>
		</g>
		<g>
			<rect x="870.1" y="450.2" fill="#CCCCCC" width="12.1" height="1.6"/>
			
				<rect x="870.1" y="450.2" transform="matrix(6.123234e-17 -1 1 6.123234e-17 425.1908 1327.2172)" fill="#CCCCCC" width="12.1" height="1.6"/>
		</g>
		<g>
			<rect x="930.9" y="450.2" fill="#CCCCCC" width="12.1" height="1.6"/>
			
				<rect x="930.9" y="450.2" transform="matrix(6.123234e-17 -1 1 6.123234e-17 485.9145 1387.9408)" fill="#CCCCCC" width="12.1" height="1.6"/>
		</g>
	</g>
	<g>
		<g>
			<rect x="20" y="510.9" fill="#CCCCCC" width="12.1" height="1.6"/>
			
				<rect x="20" y="510.9" transform="matrix(6.123234e-17 -1 1 6.123234e-17 -485.6645 537.8092)" fill="#CCCCCC" width="12.1" height="1.6"/>
		</g>
		<g>
			<rect x="80.7" y="510.9" fill="#CCCCCC" width="12.1" height="1.6"/>
			
				<rect x="80.7" y="510.9" transform="matrix(6.123234e-17 -1 1 6.123234e-17 -424.9408 598.5329)" fill="#CCCCCC" width="12.1" height="1.6"/>
		</g>
		<g>
			<rect x="141.4" y="510.9" fill="#CCCCCC" width="12.1" height="1.6"/>
			
				<rect x="141.4" y="510.9" transform="matrix(6.123234e-17 -1 1 6.123234e-17 -364.2171 659.2566)" fill="#CCCCCC" width="12.1" height="1.6"/>
		</g>
		<g>
			<rect x="202.2" y="510.9" fill="#CCCCCC" width="12.1" height="1.6"/>
			
				<rect x="202.2" y="510.9" transform="matrix(6.123234e-17 -1 1 6.123234e-17 -303.4934 719.9803)" fill="#CCCCCC" width="12.1" height="1.6"/>
		</g>
		<g>
			<rect x="262.9" y="510.9" fill="#CCCCCC" width="12.1" height="1.6"/>
			
				<rect x="262.9" y="510.9" transform="matrix(6.123234e-17 -1 1 6.123234e-17 -242.7697 780.7039)" fill="#CCCCCC" width="12.1" height="1.6"/>
		</g>
		<g>
			<rect x="323.6" y="510.9" fill="#CCCCCC" width="12.1" height="1.6"/>
			
				<rect x="323.6" y="510.9" transform="matrix(6.123234e-17 -1 1 6.123234e-17 -182.0461 841.4276)" fill="#CCCCCC" width="12.1" height="1.6"/>
		</g>
		<g>
			<rect x="384.3" y="510.9" fill="#CCCCCC" width="12.1" height="1.6"/>
			
				<rect x="384.3" y="510.9" transform="matrix(6.123234e-17 -1 1 6.123234e-17 -121.3224 902.1513)" fill="#CCCCCC" width="12.1" height="1.6"/>
		</g>
		<g>
			<rect x="445.1" y="510.9" fill="#CCCCCC" width="12.1" height="1.6"/>
			
				<rect x="445.1" y="510.9" transform="matrix(6.123234e-17 -1 1 6.123234e-17 -60.5987 962.875)" fill="#CCCCCC" width="12.1" height="1.6"/>
		</g>
		<g>
			<rect x="505.8" y="510.9" fill="#CCCCCC" width="12.1" height="1.6"/>
			
				<rect x="505.8" y="510.9" transform="matrix(6.123234e-17 -1 1 6.123234e-17 0.125 1023.5987)" fill="#CCCCCC" width="12.1" height="1.6"/>
		</g>
		<g>
			<rect x="566.5" y="510.9" fill="#CCCCCC" width="12.1" height="1.6"/>
			
				<rect x="566.5" y="510.9" transform="matrix(6.123234e-17 -1 1 6.123234e-17 60.8487 1084.3224)" fill="#CCCCCC" width="12.1" height="1.6"/>
		</g>
		<g>
			<rect x="627.2" y="510.9" fill="#CCCCCC" width="12.1" height="1.6"/>
			
				<rect x="627.2" y="510.9" transform="matrix(6.123234e-17 -1 1 6.123234e-17 121.5724 1145.046)" fill="#CCCCCC" width="12.1" height="1.6"/>
		</g>
		<g>
			<rect x="688" y="510.9" fill="#CCCCCC" width="12.1" height="1.6"/>
			
				<rect x="688" y="510.9" transform="matrix(6.123234e-17 -1 1 6.123234e-17 182.2961 1205.7698)" fill="#CCCCCC" width="12.1" height="1.6"/>
		</g>
		<g>
			<rect x="748.7" y="510.9" fill="#CCCCCC" width="12.1" height="1.6"/>
			
				<rect x="748.7" y="510.9" transform="matrix(6.123234e-17 -1 1 6.123234e-17 243.0197 1266.4934)" fill="#CCCCCC" width="12.1" height="1.6"/>
		</g>
		<g>
			<rect x="809.4" y="510.9" fill="#CCCCCC" width="12.1" height="1.6"/>
			
				<rect x="809.4" y="510.9" transform="matrix(6.123234e-17 -1 1 6.123234e-17 303.7434 1327.2172)" fill="#CCCCCC" width="12.1" height="1.6"/>
		</g>
		<g>
			<rect x="870.1" y="510.9" fill="#CCCCCC" width="12.1" height="1.6"/>
			
				<rect x="870.1" y="510.9" transform="matrix(6.123234e-17 -1 1 6.123234e-17 364.4671 1387.9408)" fill="#CCCCCC" width="12.1" height="1.6"/>
		</g>
		<g>
			<rect x="930.9" y="510.9" fill="#CCCCCC" width="12.1" height="1.6"/>
			
				<rect x="930.9" y="510.9" transform="matrix(6.123234e-17 -1 1 6.123234e-17 425.1908 1448.6644)" fill="#CCCCCC" width="12.1" height="1.6"/>
		</g>
	</g>
	<g>
		<g>
			<rect x="20" y="571.7" fill="#CCCCCC" width="12.1" height="1.6"/>
			
				<rect x="20" y="571.7" transform="matrix(6.123234e-17 -1 1 6.123234e-17 -546.3882 598.5329)" fill="#CCCCCC" width="12.1" height="1.6"/>
		</g>
		<g>
			<rect x="80.7" y="571.7" fill="#CCCCCC" width="12.1" height="1.6"/>
			
				<rect x="80.7" y="571.7" transform="matrix(6.123234e-17 -1 1 6.123234e-17 -485.6645 659.2566)" fill="#CCCCCC" width="12.1" height="1.6"/>
		</g>
		<g>
			<rect x="141.4" y="571.7" fill="#CCCCCC" width="12.1" height="1.6"/>
			
				<rect x="141.4" y="571.7" transform="matrix(6.123234e-17 -1 1 6.123234e-17 -424.9408 719.9803)" fill="#CCCCCC" width="12.1" height="1.6"/>
		</g>
		<g>
			<rect x="202.2" y="571.7" fill="#CCCCCC" width="12.1" height="1.6"/>
			
				<rect x="202.2" y="571.7" transform="matrix(6.123234e-17 -1 1 6.123234e-17 -364.2171 780.7039)" fill="#CCCCCC" width="12.1" height="1.6"/>
		</g>
		<g>
			<rect x="262.9" y="571.7" fill="#CCCCCC" width="12.1" height="1.6"/>
			
				<rect x="262.9" y="571.7" transform="matrix(6.123234e-17 -1 1 6.123234e-17 -303.4934 841.4276)" fill="#CCCCCC" width="12.1" height="1.6"/>
		</g>
		<g>
			<rect x="323.6" y="571.7" fill="#CCCCCC" width="12.1" height="1.6"/>
			
				<rect x="323.6" y="571.7" transform="matrix(6.123234e-17 -1 1 6.123234e-17 -242.7697 902.1513)" fill="#CCCCCC" width="12.1" height="1.6"/>
		</g>
		<g>
			<rect x="384.3" y="571.7" fill="#CCCCCC" width="12.1" height="1.6"/>
			
				<rect x="384.3" y="571.7" transform="matrix(6.123234e-17 -1 1 6.123234e-17 -182.0461 962.875)" fill="#CCCCCC" width="12.1" height="1.6"/>
		</g>
		<g>
			<rect x="445.1" y="571.7" fill="#CCCCCC" width="12.1" height="1.6"/>
			
				<rect x="445.1" y="571.7" transform="matrix(6.123234e-17 -1 1 6.123234e-17 -121.3224 1023.5987)" fill="#CCCCCC" width="12.1" height="1.6"/>
		</g>
		<g>
			<rect x="505.8" y="571.7" fill="#CCCCCC" width="12.1" height="1.6"/>
			
				<rect x="505.8" y="571.7" transform="matrix(6.123234e-17 -1 1 6.123234e-17 -60.5987 1084.3224)" fill="#CCCCCC" width="12.1" height="1.6"/>
		</g>
		<g>
			<rect x="566.5" y="571.7" fill="#CCCCCC" width="12.1" height="1.6"/>
			
				<rect x="566.5" y="571.7" transform="matrix(6.123234e-17 -1 1 6.123234e-17 0.125 1145.046)" fill="#CCCCCC" width="12.1" height="1.6"/>
		</g>
		<g>
			<rect x="627.2" y="571.7" fill="#CCCCCC" width="12.1" height="1.6"/>
			
				<rect x="627.2" y="571.7" transform="matrix(6.123234e-17 -1 1 6.123234e-17 60.8487 1205.7698)" fill="#CCCCCC" width="12.1" height="1.6"/>
		</g>
		<g>
			<rect x="688" y="571.7" fill="#CCCCCC" width="12.1" height="1.6"/>
			
				<rect x="688" y="571.7" transform="matrix(6.123234e-17 -1 1 6.123234e-17 121.5724 1266.4934)" fill="#CCCCCC" width="12.1" height="1.6"/>
		</g>
		<g>
			<rect x="748.7" y="571.7" fill="#CCCCCC" width="12.1" height="1.6"/>
			
				<rect x="748.7" y="571.7" transform="matrix(6.123234e-17 -1 1 6.123234e-17 182.2961 1327.2172)" fill="#CCCCCC" width="12.1" height="1.6"/>
		</g>
		<g>
			<rect x="809.4" y="571.7" fill="#CCCCCC" width="12.1" height="1.6"/>
			
				<rect x="809.4" y="571.7" transform="matrix(6.123234e-17 -1 1 6.123234e-17 243.0197 1387.9408)" fill="#CCCCCC" width="12.1" height="1.6"/>
		</g>
		<g>
			<rect x="870.1" y="571.7" fill="#CCCCCC" width="12.1" height="1.6"/>
			
				<rect x="870.1" y="571.7" transform="matrix(6.123234e-17 -1 1 6.123234e-17 303.7434 1448.6644)" fill="#CCCCCC" width="12.1" height="1.6"/>
		</g>
		<g>
			<rect x="930.9" y="571.7" fill="#CCCCCC" width="12.1" height="1.6"/>
			
				<rect x="930.9" y="571.7" transform="matrix(6.123234e-17 -1 1 6.123234e-17 364.4671 1509.3882)" fill="#CCCCCC" width="12.1" height="1.6"/>
		</g>
	</g>
	<g>
		<g>
			<rect x="20" y="632.4" fill="#CCCCCC" width="12.1" height="1.6"/>
			
				<rect x="20" y="632.4" transform="matrix(6.123234e-17 -1 1 6.123234e-17 -607.1118 659.2566)" fill="#CCCCCC" width="12.1" height="1.6"/>
		</g>
		<g>
			<rect x="80.7" y="632.4" fill="#CCCCCC" width="12.1" height="1.6"/>
			
				<rect x="80.7" y="632.4" transform="matrix(6.123234e-17 -1 1 6.123234e-17 -546.3882 719.9803)" fill="#CCCCCC" width="12.1" height="1.6"/>
		</g>
		<g>
			<rect x="141.4" y="632.4" fill="#CCCCCC" width="12.1" height="1.6"/>
			
				<rect x="141.4" y="632.4" transform="matrix(6.123234e-17 -1 1 6.123234e-17 -485.6645 780.7039)" fill="#CCCCCC" width="12.1" height="1.6"/>
		</g>
		<g>
			<rect x="202.2" y="632.4" fill="#CCCCCC" width="12.1" height="1.6"/>
			
				<rect x="202.2" y="632.4" transform="matrix(6.123234e-17 -1 1 6.123234e-17 -424.9408 841.4276)" fill="#CCCCCC" width="12.1" height="1.6"/>
		</g>
		<g>
			<rect x="262.9" y="632.4" fill="#CCCCCC" width="12.1" height="1.6"/>
			
				<rect x="262.9" y="632.4" transform="matrix(6.123234e-17 -1 1 6.123234e-17 -364.2171 902.1513)" fill="#CCCCCC" width="12.1" height="1.6"/>
		</g>
		<g>
			<rect x="323.6" y="632.4" fill="#CCCCCC" width="12.1" height="1.6"/>
			
				<rect x="323.6" y="632.4" transform="matrix(6.123234e-17 -1 1 6.123234e-17 -303.4934 962.875)" fill="#CCCCCC" width="12.1" height="1.6"/>
		</g>
		<g>
			<rect x="384.3" y="632.4" fill="#CCCCCC" width="12.1" height="1.6"/>
			
				<rect x="384.3" y="632.4" transform="matrix(6.123234e-17 -1 1 6.123234e-17 -242.7697 1023.5987)" fill="#CCCCCC" width="12.1" height="1.6"/>
		</g>
		<g>
			<rect x="445.1" y="632.4" fill="#CCCCCC" width="12.1" height="1.6"/>
			
				<rect x="445.1" y="632.4" transform="matrix(6.123234e-17 -1 1 6.123234e-17 -182.0461 1084.3224)" fill="#CCCCCC" width="12.1" height="1.6"/>
		</g>
		<g>
			<rect x="505.8" y="632.4" fill="#CCCCCC" width="12.1" height="1.6"/>
			
				<rect x="505.8" y="632.4" transform="matrix(6.123234e-17 -1 1 6.123234e-17 -121.3224 1145.046)" fill="#CCCCCC" width="12.1" height="1.6"/>
		</g>
		<g>
			<rect x="566.5" y="632.4" fill="#CCCCCC" width="12.1" height="1.6"/>
			
				<rect x="566.5" y="632.4" transform="matrix(6.123234e-17 -1 1 6.123234e-17 -60.5987 1205.7698)" fill="#CCCCCC" width="12.1" height="1.6"/>
		</g>
		<g>
			<rect x="627.2" y="632.4" fill="#CCCCCC" width="12.1" height="1.6"/>
			
				<rect x="627.2" y="632.4" transform="matrix(6.123234e-17 -1 1 6.123234e-17 0.125 1266.4934)" fill="#CCCCCC" width="12.1" height="1.6"/>
		</g>
		<g>
			<rect x="688" y="632.4" fill="#CCCCCC" width="12.1" height="1.6"/>
			
				<rect x="688" y="632.4" transform="matrix(6.123234e-17 -1 1 6.123234e-17 60.8487 1327.2172)" fill="#CCCCCC" width="12.1" height="1.6"/>
		</g>
		<g>
			<rect x="748.7" y="632.4" fill="#CCCCCC" width="12.1" height="1.6"/>
			
				<rect x="748.7" y="632.4" transform="matrix(6.123234e-17 -1 1 6.123234e-17 121.5724 1387.9408)" fill="#CCCCCC" width="12.1" height="1.6"/>
		</g>
		<g>
			<rect x="809.4" y="632.4" fill="#CCCCCC" width="12.1" height="1.6"/>
			
				<rect x="809.4" y="632.4" transform="matrix(6.123234e-17 -1 1 6.123234e-17 182.2961 1448.6644)" fill="#CCCCCC" width="12.1" height="1.6"/>
		</g>
		<g>
			<rect x="870.1" y="632.4" fill="#CCCCCC" width="12.1" height="1.6"/>
			
				<rect x="870.1" y="632.4" transform="matrix(6.123234e-17 -1 1 6.123234e-17 243.0197 1509.3882)" fill="#CCCCCC" width="12.1" height="1.6"/>
		</g>
		<g>
			<rect x="930.9" y="632.4" fill="#CCCCCC" width="12.1" height="1.6"/>
			
				<rect x="930.9" y="632.4" transform="matrix(6.123234e-17 -1 1 6.123234e-17 303.7434 1570.1118)" fill="#CCCCCC" width="12.1" height="1.6"/>
		</g>
	</g>
	<g>
		<g>
			<rect x="20" y="693.1" fill="#CCCCCC" width="12.1" height="1.6"/>
			
				<rect x="20" y="693.1" transform="matrix(6.123234e-17 -1 1 6.123234e-17 -667.8355 719.9803)" fill="#CCCCCC" width="12.1" height="1.6"/>
		</g>
		<g>
			<rect x="80.7" y="693.1" fill="#CCCCCC" width="12.1" height="1.6"/>
			
				<rect x="80.7" y="693.1" transform="matrix(6.123234e-17 -1 1 6.123234e-17 -607.1118 780.7039)" fill="#CCCCCC" width="12.1" height="1.6"/>
		</g>
		<g>
			<rect x="141.4" y="693.1" fill="#CCCCCC" width="12.1" height="1.6"/>
			
				<rect x="141.4" y="693.1" transform="matrix(6.123234e-17 -1 1 6.123234e-17 -546.3882 841.4276)" fill="#CCCCCC" width="12.1" height="1.6"/>
		</g>
		<g>
			<rect x="202.2" y="693.1" fill="#CCCCCC" width="12.1" height="1.6"/>
			
				<rect x="202.2" y="693.1" transform="matrix(6.123234e-17 -1 1 6.123234e-17 -485.6645 902.1513)" fill="#CCCCCC" width="12.1" height="1.6"/>
		</g>
		<g>
			<rect x="262.9" y="693.1" fill="#CCCCCC" width="12.1" height="1.6"/>
			
				<rect x="262.9" y="693.1" transform="matrix(6.123234e-17 -1 1 6.123234e-17 -424.9408 962.875)" fill="#CCCCCC" width="12.1" height="1.6"/>
		</g>
		<g>
			<rect x="323.6" y="693.1" fill="#CCCCCC" width="12.1" height="1.6"/>
			
				<rect x="323.6" y="693.1" transform="matrix(6.123234e-17 -1 1 6.123234e-17 -364.2171 1023.5987)" fill="#CCCCCC" width="12.1" height="1.6"/>
		</g>
		<g>
			<rect x="384.3" y="693.1" fill="#CCCCCC" width="12.1" height="1.6"/>
			
				<rect x="384.3" y="693.1" transform="matrix(6.123234e-17 -1 1 6.123234e-17 -303.4934 1084.3224)" fill="#CCCCCC" width="12.1" height="1.6"/>
		</g>
		<g>
			<rect x="445.1" y="693.1" fill="#CCCCCC" width="12.1" height="1.6"/>
			
				<rect x="445.1" y="693.1" transform="matrix(6.123234e-17 -1 1 6.123234e-17 -242.7697 1145.046)" fill="#CCCCCC" width="12.1" height="1.6"/>
		</g>
		<g>
			<rect x="505.8" y="693.1" fill="#CCCCCC" width="12.1" height="1.6"/>
			
				<rect x="505.8" y="693.1" transform="matrix(6.123234e-17 -1 1 6.123234e-17 -182.0461 1205.7698)" fill="#CCCCCC" width="12.1" height="1.6"/>
		</g>
		<g>
			<rect x="566.5" y="693.1" fill="#CCCCCC" width="12.1" height="1.6"/>
			
				<rect x="566.5" y="693.1" transform="matrix(6.123234e-17 -1 1 6.123234e-17 -121.3224 1266.4934)" fill="#CCCCCC" width="12.1" height="1.6"/>
		</g>
		<g>
			<rect x="627.2" y="693.1" fill="#CCCCCC" width="12.1" height="1.6"/>
			
				<rect x="627.2" y="693.1" transform="matrix(6.123234e-17 -1 1 6.123234e-17 -60.5987 1327.2172)" fill="#CCCCCC" width="12.1" height="1.6"/>
		</g>
		<g>
			<rect x="688" y="693.1" fill="#CCCCCC" width="12.1" height="1.6"/>
			
				<rect x="688" y="693.1" transform="matrix(6.123234e-17 -1 1 6.123234e-17 0.125 1387.9408)" fill="#CCCCCC" width="12.1" height="1.6"/>
		</g>
		<g>
			<rect x="748.7" y="693.1" fill="#CCCCCC" width="12.1" height="1.6"/>
			
				<rect x="748.7" y="693.1" transform="matrix(6.123234e-17 -1 1 6.123234e-17 60.8487 1448.6644)" fill="#CCCCCC" width="12.1" height="1.6"/>
		</g>
		<g>
			<rect x="809.4" y="693.1" fill="#CCCCCC" width="12.1" height="1.6"/>
			
				<rect x="809.4" y="693.1" transform="matrix(6.123234e-17 -1 1 6.123234e-17 121.5724 1509.3882)" fill="#CCCCCC" width="12.1" height="1.6"/>
		</g>
		<g>
			<rect x="870.1" y="693.1" fill="#CCCCCC" width="12.1" height="1.6"/>
			
				<rect x="870.1" y="693.1" transform="matrix(6.123234e-17 -1 1 6.123234e-17 182.2961 1570.1118)" fill="#CCCCCC" width="12.1" height="1.6"/>
		</g>
		<g>
			<rect x="930.9" y="693.1" fill="#CCCCCC" width="12.1" height="1.6"/>
			
				<rect x="930.9" y="693.1" transform="matrix(6.123234e-17 -1 1 6.123234e-17 243.0197 1630.8356)" fill="#CCCCCC" width="12.1" height="1.6"/>
		</g>
	</g>
	<g>
		<g>
			<rect x="20" y="753.8" fill="#CCCCCC" width="12.1" height="1.6"/>
			
				<rect x="20" y="753.8" transform="matrix(6.123234e-17 -1 1 6.123234e-17 -728.5592 780.7039)" fill="#CCCCCC" width="12.1" height="1.6"/>
		</g>
		<g>
			<rect x="80.7" y="753.8" fill="#CCCCCC" width="12.1" height="1.6"/>
			
				<rect x="80.7" y="753.8" transform="matrix(6.123234e-17 -1 1 6.123234e-17 -667.8355 841.4276)" fill="#CCCCCC" width="12.1" height="1.6"/>
		</g>
		<g>
			<rect x="141.4" y="753.8" fill="#CCCCCC" width="12.1" height="1.6"/>
			
				<rect x="141.4" y="753.8" transform="matrix(6.123234e-17 -1 1 6.123234e-17 -607.1118 902.1513)" fill="#CCCCCC" width="12.1" height="1.6"/>
		</g>
		<g>
			<rect x="202.2" y="753.8" fill="#CCCCCC" width="12.1" height="1.6"/>
			
				<rect x="202.2" y="753.8" transform="matrix(6.123234e-17 -1 1 6.123234e-17 -546.3882 962.875)" fill="#CCCCCC" width="12.1" height="1.6"/>
		</g>
		<g>
			<rect x="262.9" y="753.8" fill="#CCCCCC" width="12.1" height="1.6"/>
			
				<rect x="262.9" y="753.8" transform="matrix(6.123234e-17 -1 1 6.123234e-17 -485.6645 1023.5987)" fill="#CCCCCC" width="12.1" height="1.6"/>
		</g>
		<g>
			<rect x="323.6" y="753.8" fill="#CCCCCC" width="12.1" height="1.6"/>
			
				<rect x="323.6" y="753.8" transform="matrix(6.123234e-17 -1 1 6.123234e-17 -424.9408 1084.3224)" fill="#CCCCCC" width="12.1" height="1.6"/>
		</g>
		<g>
			<rect x="384.3" y="753.8" fill="#CCCCCC" width="12.1" height="1.6"/>
			
				<rect x="384.3" y="753.8" transform="matrix(6.123234e-17 -1 1 6.123234e-17 -364.2171 1145.046)" fill="#CCCCCC" width="12.1" height="1.6"/>
		</g>
		<g>
			<rect x="445.1" y="753.8" fill="#CCCCCC" width="12.1" height="1.6"/>
			
				<rect x="445.1" y="753.8" transform="matrix(6.123234e-17 -1 1 6.123234e-17 -303.4934 1205.7698)" fill="#CCCCCC" width="12.1" height="1.6"/>
		</g>
		<g>
			<rect x="505.8" y="753.8" fill="#CCCCCC" width="12.1" height="1.6"/>
			
				<rect x="505.8" y="753.8" transform="matrix(6.123234e-17 -1 1 6.123234e-17 -242.7697 1266.4934)" fill="#CCCCCC" width="12.1" height="1.6"/>
		</g>
		<g>
			<rect x="566.5" y="753.8" fill="#CCCCCC" width="12.1" height="1.6"/>
			
				<rect x="566.5" y="753.8" transform="matrix(6.123234e-17 -1 1 6.123234e-17 -182.0461 1327.2172)" fill="#CCCCCC" width="12.1" height="1.6"/>
		</g>
		<g>
			<rect x="627.2" y="753.8" fill="#CCCCCC" width="12.1" height="1.6"/>
			
				<rect x="627.2" y="753.8" transform="matrix(6.123234e-17 -1 1 6.123234e-17 -121.3224 1387.9408)" fill="#CCCCCC" width="12.1" height="1.6"/>
		</g>
		<g>
			<rect x="688" y="753.8" fill="#CCCCCC" width="12.1" height="1.6"/>
			
				<rect x="688" y="753.8" transform="matrix(6.123234e-17 -1 1 6.123234e-17 -60.5987 1448.6644)" fill="#CCCCCC" width="12.1" height="1.6"/>
		</g>
		<g>
			<rect x="748.7" y="753.8" fill="#CCCCCC" width="12.1" height="1.6"/>
			
				<rect x="748.7" y="753.8" transform="matrix(6.123234e-17 -1 1 6.123234e-17 0.125 1509.3882)" fill="#CCCCCC" width="12.1" height="1.6"/>
		</g>
		<g>
			<rect x="809.4" y="753.8" fill="#CCCCCC" width="12.1" height="1.6"/>
			
				<rect x="809.4" y="753.8" transform="matrix(6.123234e-17 -1 1 6.123234e-17 60.8487 1570.1118)" fill="#CCCCCC" width="12.1" height="1.6"/>
		</g>
		<g>
			<rect x="870.1" y="753.8" fill="#CCCCCC" width="12.1" height="1.6"/>
			
				<rect x="870.1" y="753.8" transform="matrix(6.123234e-17 -1 1 6.123234e-17 121.5724 1630.8356)" fill="#CCCCCC" width="12.1" height="1.6"/>
		</g>
		<g>
			<rect x="930.9" y="753.8" fill="#CCCCCC" width="12.1" height="1.6"/>
			
				<rect x="930.9" y="753.8" transform="matrix(6.123234e-17 -1 1 6.123234e-17 182.2961 1691.5592)" fill="#CCCCCC" width="12.1" height="1.6"/>
		</g>
	</g>
	<g>
		<g>
			<rect x="20" y="814.5" fill="#CCCCCC" width="12.1" height="1.6"/>
			
				<rect x="20" y="814.5" transform="matrix(6.123234e-17 -1 1 6.123234e-17 -789.2829 841.4276)" fill="#CCCCCC" width="12.1" height="1.6"/>
		</g>
		<g>
			<rect x="80.7" y="814.5" fill="#CCCCCC" width="12.1" height="1.6"/>
			
				<rect x="80.7" y="814.5" transform="matrix(6.123234e-17 -1 1 6.123234e-17 -728.5592 902.1513)" fill="#CCCCCC" width="12.1" height="1.6"/>
		</g>
		<g>
			<rect x="141.4" y="814.5" fill="#CCCCCC" width="12.1" height="1.6"/>
			
				<rect x="141.4" y="814.5" transform="matrix(6.123234e-17 -1 1 6.123234e-17 -667.8355 962.875)" fill="#CCCCCC" width="12.1" height="1.6"/>
		</g>
		<g>
			<rect x="202.2" y="814.5" fill="#CCCCCC" width="12.1" height="1.6"/>
			
				<rect x="202.2" y="814.5" transform="matrix(6.123234e-17 -1 1 6.123234e-17 -607.1118 1023.5987)" fill="#CCCCCC" width="12.1" height="1.6"/>
		</g>
		<g>
			<rect x="262.9" y="814.5" fill="#CCCCCC" width="12.1" height="1.6"/>
			
				<rect x="262.9" y="814.5" transform="matrix(6.123234e-17 -1 1 6.123234e-17 -546.3882 1084.3224)" fill="#CCCCCC" width="12.1" height="1.6"/>
		</g>
		<g>
			<rect x="323.6" y="814.5" fill="#CCCCCC" width="12.1" height="1.6"/>
			
				<rect x="323.6" y="814.5" transform="matrix(6.123234e-17 -1 1 6.123234e-17 -485.6645 1145.046)" fill="#CCCCCC" width="12.1" height="1.6"/>
		</g>
		<g>
			<rect x="384.3" y="814.5" fill="#CCCCCC" width="12.1" height="1.6"/>
			
				<rect x="384.3" y="814.5" transform="matrix(6.123234e-17 -1 1 6.123234e-17 -424.9408 1205.7698)" fill="#CCCCCC" width="12.1" height="1.6"/>
		</g>
		<g>
			<rect x="445.1" y="814.5" fill="#CCCCCC" width="12.1" height="1.6"/>
			
				<rect x="445.1" y="814.5" transform="matrix(6.123234e-17 -1 1 6.123234e-17 -364.2171 1266.4934)" fill="#CCCCCC" width="12.1" height="1.6"/>
		</g>
		<g>
			<rect x="505.8" y="814.5" fill="#CCCCCC" width="12.1" height="1.6"/>
			
				<rect x="505.8" y="814.5" transform="matrix(6.123234e-17 -1 1 6.123234e-17 -303.4934 1327.2172)" fill="#CCCCCC" width="12.1" height="1.6"/>
		</g>
		<g>
			<rect x="566.5" y="814.5" fill="#CCCCCC" width="12.1" height="1.6"/>
			
				<rect x="566.5" y="814.5" transform="matrix(6.123234e-17 -1 1 6.123234e-17 -242.7697 1387.9408)" fill="#CCCCCC" width="12.1" height="1.6"/>
		</g>
		<g>
			<rect x="627.2" y="814.5" fill="#CCCCCC" width="12.1" height="1.6"/>
			
				<rect x="627.2" y="814.5" transform="matrix(6.123234e-17 -1 1 6.123234e-17 -182.0461 1448.6644)" fill="#CCCCCC" width="12.1" height="1.6"/>
		</g>
		<g>
			<rect x="688" y="814.5" fill="#CCCCCC" width="12.1" height="1.6"/>
			
				<rect x="688" y="814.5" transform="matrix(6.123234e-17 -1 1 6.123234e-17 -121.3224 1509.3882)" fill="#CCCCCC" width="12.1" height="1.6"/>
		</g>
		<g>
			<rect x="748.7" y="814.5" fill="#CCCCCC" width="12.1" height="1.6"/>
			
				<rect x="748.7" y="814.5" transform="matrix(6.123234e-17 -1 1 6.123234e-17 -60.5987 1570.1118)" fill="#CCCCCC" width="12.1" height="1.6"/>
		</g>
		<g>
			<rect x="809.4" y="814.5" fill="#CCCCCC" width="12.1" height="1.6"/>
			
				<rect x="809.4" y="814.5" transform="matrix(6.123234e-17 -1 1 6.123234e-17 0.125 1630.8356)" fill="#CCCCCC" width="12.1" height="1.6"/>
		</g>
		<g>
			<rect x="870.1" y="814.5" fill="#CCCCCC" width="12.1" height="1.6"/>
			
				<rect x="870.1" y="814.5" transform="matrix(6.123234e-17 -1 1 6.123234e-17 60.8487 1691.5592)" fill="#CCCCCC" width="12.1" height="1.6"/>
		</g>
		<g>
			<rect x="930.9" y="814.5" fill="#CCCCCC" width="12.1" height="1.6"/>
			
				<rect x="930.9" y="814.5" transform="matrix(6.123234e-17 -1 1 6.123234e-17 121.5724 1752.2828)" fill="#CCCCCC" width="12.1" height="1.6"/>
		</g>
	</g>
	<g>
		<g>
			<rect x="20" y="875.3" fill="#CCCCCC" width="12.1" height="1.6"/>
			
				<rect x="20" y="875.3" transform="matrix(6.123234e-17 -1 1 6.123234e-17 -850.0066 902.1513)" fill="#CCCCCC" width="12.1" height="1.6"/>
		</g>
		<g>
			<rect x="80.7" y="875.3" fill="#CCCCCC" width="12.1" height="1.6"/>
			
				<rect x="80.7" y="875.3" transform="matrix(6.123234e-17 -1 1 6.123234e-17 -789.2829 962.875)" fill="#CCCCCC" width="12.1" height="1.6"/>
		</g>
		<g>
			<rect x="141.4" y="875.3" fill="#CCCCCC" width="12.1" height="1.6"/>
			
				<rect x="141.4" y="875.3" transform="matrix(6.123234e-17 -1 1 6.123234e-17 -728.5592 1023.5987)" fill="#CCCCCC" width="12.1" height="1.6"/>
		</g>
		<g>
			<rect x="202.2" y="875.3" fill="#CCCCCC" width="12.1" height="1.6"/>
			
				<rect x="202.2" y="875.3" transform="matrix(6.123234e-17 -1 1 6.123234e-17 -667.8355 1084.3224)" fill="#CCCCCC" width="12.1" height="1.6"/>
		</g>
		<g>
			<rect x="262.9" y="875.3" fill="#CCCCCC" width="12.1" height="1.6"/>
			
				<rect x="262.9" y="875.3" transform="matrix(6.123234e-17 -1 1 6.123234e-17 -607.1118 1145.046)" fill="#CCCCCC" width="12.1" height="1.6"/>
		</g>
		<g>
			<rect x="323.6" y="875.3" fill="#CCCCCC" width="12.1" height="1.6"/>
			
				<rect x="323.6" y="875.3" transform="matrix(6.123234e-17 -1 1 6.123234e-17 -546.3882 1205.7698)" fill="#CCCCCC" width="12.1" height="1.6"/>
		</g>
		<g>
			<rect x="384.3" y="875.3" fill="#CCCCCC" width="12.1" height="1.6"/>
			
				<rect x="384.3" y="875.3" transform="matrix(6.123234e-17 -1 1 6.123234e-17 -485.6645 1266.4934)" fill="#CCCCCC" width="12.1" height="1.6"/>
		</g>
		<g>
			<rect x="445.1" y="875.3" fill="#CCCCCC" width="12.1" height="1.6"/>
			
				<rect x="445.1" y="875.3" transform="matrix(6.123234e-17 -1 1 6.123234e-17 -424.9408 1327.2172)" fill="#CCCCCC" width="12.1" height="1.6"/>
		</g>
		<g>
			<rect x="505.8" y="875.3" fill="#CCCCCC" width="12.1" height="1.6"/>
			
				<rect x="505.8" y="875.3" transform="matrix(6.123234e-17 -1 1 6.123234e-17 -364.2171 1387.9408)" fill="#CCCCCC" width="12.1" height="1.6"/>
		</g>
		<g>
			<rect x="566.5" y="875.3" fill="#CCCCCC" width="12.1" height="1.6"/>
			
				<rect x="566.5" y="875.3" transform="matrix(6.123234e-17 -1 1 6.123234e-17 -303.4934 1448.6644)" fill="#CCCCCC" width="12.1" height="1.6"/>
		</g>
		<g>
			<rect x="627.2" y="875.3" fill="#CCCCCC" width="12.1" height="1.6"/>
			
				<rect x="627.2" y="875.3" transform="matrix(6.123234e-17 -1 1 6.123234e-17 -242.7697 1509.3882)" fill="#CCCCCC" width="12.1" height="1.6"/>
		</g>
		<g>
			<rect x="688" y="875.3" fill="#CCCCCC" width="12.1" height="1.6"/>
			
				<rect x="688" y="875.3" transform="matrix(6.123234e-17 -1 1 6.123234e-17 -182.0461 1570.1118)" fill="#CCCCCC" width="12.1" height="1.6"/>
		</g>
		<g>
			<rect x="748.7" y="875.3" fill="#CCCCCC" width="12.1" height="1.6"/>
			
				<rect x="748.7" y="875.3" transform="matrix(6.123234e-17 -1 1 6.123234e-17 -121.3224 1630.8356)" fill="#CCCCCC" width="12.1" height="1.6"/>
		</g>
		<g>
			<rect x="809.4" y="875.3" fill="#CCCCCC" width="12.1" height="1.6"/>
			
				<rect x="809.4" y="875.3" transform="matrix(6.123234e-17 -1 1 6.123234e-17 -60.5987 1691.5592)" fill="#CCCCCC" width="12.1" height="1.6"/>
		</g>
		<g>
			<rect x="870.1" y="875.3" fill="#CCCCCC" width="12.1" height="1.6"/>
			
				<rect x="870.1" y="875.3" transform="matrix(6.123234e-17 -1 1 6.123234e-17 0.125 1752.2828)" fill="#CCCCCC" width="12.1" height="1.6"/>
		</g>
		<g>
			<rect x="930.9" y="875.3" fill="#CCCCCC" width="12.1" height="1.6"/>
			
				<rect x="930.9" y="875.3" transform="matrix(6.123234e-17 -1 1 6.123234e-17 60.8487 1813.0066)" fill="#CCCCCC" width="12.1" height="1.6"/>
		</g>
	</g>
	<g>
		<g>
			<rect x="20" y="936" fill="#CCCCCC" width="12.1" height="1.6"/>
			
				<rect x="20" y="936" transform="matrix(6.123234e-17 -1 1 6.123234e-17 -910.7303 962.875)" fill="#CCCCCC" width="12.1" height="1.6"/>
		</g>
		<g>
			<rect x="80.7" y="936" fill="#CCCCCC" width="12.1" height="1.6"/>
			
				<rect x="80.7" y="936" transform="matrix(6.123234e-17 -1 1 6.123234e-17 -850.0066 1023.5987)" fill="#CCCCCC" width="12.1" height="1.6"/>
		</g>
		<g>
			<rect x="141.4" y="936" fill="#CCCCCC" width="12.1" height="1.6"/>
			
				<rect x="141.4" y="936" transform="matrix(6.123234e-17 -1 1 6.123234e-17 -789.2829 1084.3224)" fill="#CCCCCC" width="12.1" height="1.6"/>
		</g>
		<g>
			<rect x="202.2" y="936" fill="#CCCCCC" width="12.1" height="1.6"/>
			
				<rect x="202.2" y="936" transform="matrix(6.123234e-17 -1 1 6.123234e-17 -728.5592 1145.046)" fill="#CCCCCC" width="12.1" height="1.6"/>
		</g>
		<g>
			<rect x="262.9" y="936" fill="#CCCCCC" width="12.1" height="1.6"/>
			
				<rect x="262.9" y="936" transform="matrix(6.123234e-17 -1 1 6.123234e-17 -667.8355 1205.7698)" fill="#CCCCCC" width="12.1" height="1.6"/>
		</g>
		<g>
			<rect x="323.6" y="936" fill="#CCCCCC" width="12.1" height="1.6"/>
			
				<rect x="323.6" y="936" transform="matrix(6.123234e-17 -1 1 6.123234e-17 -607.1118 1266.4934)" fill="#CCCCCC" width="12.1" height="1.6"/>
		</g>
		<g>
			<rect x="384.3" y="936" fill="#CCCCCC" width="12.1" height="1.6"/>
			
				<rect x="384.3" y="936" transform="matrix(6.123234e-17 -1 1 6.123234e-17 -546.3882 1327.2172)" fill="#CCCCCC" width="12.1" height="1.6"/>
		</g>
		<g>
			<rect x="445.1" y="936" fill="#CCCCCC" width="12.1" height="1.6"/>
			
				<rect x="445.1" y="936" transform="matrix(6.123234e-17 -1 1 6.123234e-17 -485.6645 1387.9408)" fill="#CCCCCC" width="12.1" height="1.6"/>
		</g>
		<g>
			<rect x="505.8" y="936" fill="#CCCCCC" width="12.1" height="1.6"/>
			
				<rect x="505.8" y="936" transform="matrix(6.123234e-17 -1 1 6.123234e-17 -424.9408 1448.6644)" fill="#CCCCCC" width="12.1" height="1.6"/>
		</g>
		<g>
			<rect x="566.5" y="936" fill="#CCCCCC" width="12.1" height="1.6"/>
			
				<rect x="566.5" y="936" transform="matrix(6.123234e-17 -1 1 6.123234e-17 -364.2171 1509.3882)" fill="#CCCCCC" width="12.1" height="1.6"/>
		</g>
		<g>
			<rect x="627.2" y="936" fill="#CCCCCC" width="12.1" height="1.6"/>
			
				<rect x="627.2" y="936" transform="matrix(6.123234e-17 -1 1 6.123234e-17 -303.4934 1570.1118)" fill="#CCCCCC" width="12.1" height="1.6"/>
		</g>
		<g>
			<rect x="688" y="936" fill="#CCCCCC" width="12.1" height="1.6"/>
			
				<rect x="688" y="936" transform="matrix(6.123234e-17 -1 1 6.123234e-17 -242.7697 1630.8356)" fill="#CCCCCC" width="12.1" height="1.6"/>
		</g>
		<g>
			<rect x="748.7" y="936" fill="#CCCCCC" width="12.1" height="1.6"/>
			
				<rect x="748.7" y="936" transform="matrix(6.123234e-17 -1 1 6.123234e-17 -182.0461 1691.5592)" fill="#CCCCCC" width="12.1" height="1.6"/>
		</g>
		<g>
			<rect x="809.4" y="936" fill="#CCCCCC" width="12.1" height="1.6"/>
			
				<rect x="809.4" y="936" transform="matrix(6.123234e-17 -1 1 6.123234e-17 -121.3224 1752.2828)" fill="#CCCCCC" width="12.1" height="1.6"/>
		</g>
		<g>
			<rect x="870.1" y="936" fill="#CCCCCC" width="12.1" height="1.6"/>
			
				<rect x="870.1" y="936" transform="matrix(6.123234e-17 -1 1 6.123234e-17 -60.5987 1813.0066)" fill="#CCCCCC" width="12.1" height="1.6"/>
		</g>
		<g>
			<rect x="930.9" y="936" fill="#CCCCCC" width="12.1" height="1.6"/>
			
				<rect x="930.9" y="936" transform="matrix(6.123234e-17 -1 1 6.123234e-17 0.125 1873.7302)" fill="#CCCCCC" width="12.1" height="1.6"/>
		</g>
	</g>
</g>
</svg>
